<?xml version="1.0" encoding="UTF-8" standalone="no"?>
<!-- Generator: Adobe Illustrator 27.5.0, SVG Export Plug-In . SVG Version: 6.00 Build 0)  -->

<svg
   version="1.1"
   x="0px"
   y="0px"
   viewBox="0 0 750 151.88268"
   xml:space="preserve"
   id="svg7279"
   sodipodi:docname="snow.svg"
   width="750"
   height="151.88268"
   inkscape:version="1.2.2 (732a01da63, 2022-12-09)"
   xmlns:inkscape="http://www.inkscape.org/namespaces/inkscape"
   xmlns:sodipodi="http://sodipodi.sourceforge.net/DTD/sodipodi-0.dtd"
   xmlns="http://www.w3.org/2000/svg"
   xmlns:svg="http://www.w3.org/2000/svg"><defs
   id="defs7283" /><sodipodi:namedview
   id="namedview7281"
   pagecolor="#505050"
   bordercolor="#eeeeee"
   borderopacity="1"
   inkscape:showpageshadow="0"
   inkscape:pageopacity="0"
   inkscape:pagecheckerboard="0"
   inkscape:deskcolor="#505050"
   showgrid="false"
   inkscape:zoom="1.612"
   inkscape:cx="382.75434"
   inkscape:cy="100.49628"
   inkscape:window-width="1920"
   inkscape:window-height="1009"
   inkscape:window-x="-8"
   inkscape:window-y="-8"
   inkscape:window-maximized="1"
   inkscape:current-layer="svg7279" />


<g
   id="g7032"
   transform="translate(0,-348.11733)">
			<path
   style="fill:#dcedfc"
   d="m 750,452.819 c -2.335,-0.015 -4.669,-0.019 -6.998,-0.019 -52.868,0 -104.014,13.831 -156.383,19.806 -8.359,0.954 -16.91,0.373 -25.316,0.372 -6.744,-0.001 -13.653,0.475 -20.355,-0.408 -11.476,-1.512 -23.01,-1.71 -34.439,-3.58 -7.363,-1.205 -13.242,-5.937 -20.351,-7.844 -3.84,-1.03 -7.805,-1.453 -11.696,-2.34 -9.609,-2.191 -18.825,-5.161 -28.002,-8.808 -5.152,-2.047 -9.679,-4.049 -14.623,-6.415 -4.507,-2.158 -9.648,-2.469 -14.448,-3.623 -8.96,-2.154 -17.271,-5.863 -26.01,-8.721 -18.324,-5.994 -36.379,-12.256 -54.624,-18.386 -9.939,-3.34 -20.273,-4.499 -30.193,-8.196 -8.006,-2.984 -15.194,-4.145 -23.473,-5.227 -4.218,-0.551 -7.7,-1.722 -12.035,-1.678 -4.699,0.048 -9.405,0.049 -14.104,0.021 -8.263,-0.049 -15.924,1.592 -24.147,1.78 -8.935,0.205 -19.517,3.003 -28.139,5.506 -10.184,2.957 -20.167,6.124 -30.194,9.729 -11.707,4.21 -23.972,6.933 -35.767,10.912 -5.088,1.716 -9.821,4.255 -14.853,6.078 -5.488,1.988 -11.38,2.105 -16.739,4.374 -29.27,12.385 -58.476,24.776 -88.081,36.134 -6.254,2.399 -12.583,4.678 -19.03,6.456 V 500 h 750 z"
   id="path7020" />
			<path
   style="fill:#b8d7ef"
   d="m 750,482.656 c -2.695,0.639 -5.387,1.332 -8.096,2.063 -5.168,1.395 -10.499,2.178 -15.816,2.766 -2.968,0.328 -6.188,0.598 -9.015,-0.64 -3.683,-1.612 -6.458,-4.914 -10.195,-6.595 -4.671,-2.102 -11.398,-0.486 -16.074,0.938 -3.603,1.098 -7.339,2.333 -10.845,3.71 -2.353,0.923 -4.564,2.164 -7.078,2.634 -6.583,1.23 -16.816,-6.839 -9.162,-12.516 3.628,-2.691 6.886,-4.686 10.988,-6.6 2.402,-1.121 4.708,-2.055 6.956,-3.489 2.106,-1.344 4.347,-1.79 6.512,-2.952 2.768,-1.486 4.9,-3.993 7.672,-5.506 0.325,-0.177 0.738,-0.402 1.181,-0.663 -36.886,4.41 -73.341,12.57 -110.409,16.8 -8.359,0.954 -16.91,0.373 -25.316,0.372 -6.744,-0.001 -13.653,0.475 -20.355,-0.408 -5.481,-0.722 -10.976,-1.145 -16.466,-1.593 -0.921,0.048 -1.841,0.094 -2.758,0.141 -3.69,0.188 -7.286,1.643 -10.962,1.911 -2.913,0.212 -5.834,0.328 -8.71,0.84 -3.428,0.611 -7.113,1.267 -10.042,2.553 -3.208,1.408 -6.465,2.954 -9.843,4.098 -2.44,0.827 -5.015,2.168 -7.492,2.598 -1.53,0.265 -3.133,-0.109 -4.707,0.156 -0.859,0.145 -1.818,0.534 -2.677,0.713 -7.044,1.47 -14.095,3.726 -21.425,2.817 -2.388,-0.296 -4.728,-2.219 -7.029,-3.068 -2.186,-0.807 -5.04,-1.306 -7.344,-1.63 -3.032,-0.427 -5.978,0.745 -8.954,0.962 -3.071,0.223 -6.144,0.797 -9.135,1.58 -6.473,1.694 -14.154,2.197 -20.427,-0.411 -2.681,-1.115 -5.237,-2.372 -7.825,-3.695 -2.402,-1.227 -4.47,-2.882 -6.829,-4.119 -7.843,-4.115 -17.035,-4.356 -25.688,-4.361 -5.872,-0.003 -11.745,0.018 -17.618,0.002 -2.409,-0.007 -4.855,-0.155 -7.259,-0.049 -2.483,0.109 -4.699,0.879 -7.172,1.012 -11.615,0.627 -23.44,-0.047 -35.079,-0.047 -11.28,0 -22.659,0.715 -33.796,2.544 -5.028,0.826 -10.532,0.211 -15.604,0.208 -4.25,-0.004 -8.681,0.572 -12.699,-1.147 -4.655,-1.992 -4.827,-3.32 -3.781,-8.072 0.815,-3.701 1.958,-6.548 -1.385,-9.352 -1.469,-1.232 -3.076,-1.841 -4.837,-2.522 -0.893,-0.345 -1.983,-0.956 -2.952,-1.015 -1.266,-0.078 -2.233,0.81 -3.421,1.038 -13.726,2.63 -28.078,7.118 -42.301,5.498 -2.876,-0.327 -3.859,-1.214 -5.183,-3.693 -0.761,-1.425 -2.015,-2.514 -2.799,-3.87 -2.05,-3.543 -0.527,-8.243 1.586,-11.515 1.641,-2.54 4.957,-4.651 7.334,-6.424 3.366,-2.51 7.452,-4.552 11.281,-6.112 3.802,-1.55 6.722,-4.845 10.57,-6.495 4.168,-1.787 7.436,-4.734 11.493,-6.677 6.308,-3.02 11.93,-7.939 18.492,-10.492 2.972,-1.156 6.093,-2.668 8.637,-4.771 -7.236,0.975 -14.923,3.045 -21.478,4.949 -10.184,2.957 -20.167,6.124 -30.194,9.729 -11.707,4.21 -23.972,6.933 -35.767,10.912 -5.088,1.716 -9.821,4.255 -14.853,6.078 -5.488,1.988 -11.38,2.105 -16.739,4.374 -29.27,12.385 -58.476,24.776 -88.081,36.134 -6.254,2.399 -12.583,4.678 -19.03,6.456 V 500 h 750 z"
   id="path7022" />
			<g
   id="g7028">
				<path
   style="fill:#ffffff"
   d="m 244.259,398.637 c 2.387,0.009 4.775,0.046 7.157,0.048 4.125,0.003 7.637,0.397 11.633,1.352 3.577,0.855 7.55,2.029 10.889,3.464 2.799,1.203 5.062,3.111 7.801,4.399 3.27,1.538 7.057,0.706 10.522,1.794 3.046,0.957 5.868,1.99 8.816,3.207 3.088,1.275 5.765,3.063 8.815,4.355 5.195,2.201 11.369,4.014 16.894,5.154 2.22,0.458 3.522,0.889 5.33,2.407 1.146,0.962 2.022,2.465 3.235,3.286 1.509,1.022 3.766,1.209 5.551,1.537 2.467,0.453 4.867,0.842 7.28,1.595 1.599,0.499 2.765,1.398 4.262,2.073 3.581,1.617 7.725,1.429 11.49,2.339 3.27,0.79 6.314,2.563 9.524,3.391 6.299,1.626 13.276,2.767 19.97,2.753 6.758,-0.014 13.266,1.099 19.726,2.956 1.773,0.51 3.746,1.941 5.482,2.776 2.088,1.004 4.498,2.062 6.85,2.549 1.701,0.353 2.809,0.177 4.4,1.125 1.125,0.67 1.474,1.207 2.353,2.06 2.377,2.305 5.534,2.561 8.686,3.236 2.349,0.503 5.713,0.328 7.778,1.765 1.176,0.818 1.442,2.151 2.694,2.751 0.953,0.457 2.148,0.485 3.188,0.961 2.37,1.083 4.385,0.823 6.926,0.908 2.588,0.087 4.857,1.212 7.337,1.756 4.501,0.987 8.633,1.85 12.727,3.87 1.915,0.945 2.897,1.763 5.162,1.717 2.806,-0.057 5.023,0.945 7.793,0.919 2.834,-0.027 5.072,0.128 7.752,-0.895 1.363,-0.52 2.677,-0.937 4.023,-1.298 -7.266,-1.259 -13.103,-5.915 -20.146,-7.804 -3.84,-1.03 -7.805,-1.453 -11.696,-2.34 -9.609,-2.191 -18.825,-5.161 -28.002,-8.808 -5.152,-2.047 -9.679,-4.049 -14.623,-6.415 -4.507,-2.158 -9.648,-2.469 -14.448,-3.623 -8.96,-2.154 -17.271,-5.863 -26.01,-8.721 -18.324,-5.994 -36.379,-12.256 -54.624,-18.386 -9.939,-3.34 -20.273,-4.499 -30.193,-8.196 -8.006,-2.984 -15.194,-4.145 -23.473,-5.227 -4.218,-0.551 -7.7,-1.722 -12.035,-1.678 -4.699,0.048 -9.405,0.049 -14.104,0.021 -4.34,-0.025 -8.515,0.415 -12.692,0.867 z"
   id="path7024" />
				<path
   style="fill:#ffffff"
   d="m 235.594,399.431 c -0.721,0.043 -1.448,0.071 -2.177,0.094 0.551,0.147 1.342,0.067 2.177,-0.094 z"
   id="path7026" />
			</g>
			<path
   style="fill:#ffffff"
   d="m 750,452.819 c -2.335,-0.015 -4.669,-0.019 -6.998,-0.019 -13.797,0 -27.476,0.947 -41.091,2.446 0.105,0.042 0.207,0.089 0.315,0.123 1.236,0.39 2.443,0.128 3.695,0.159 1.597,0.04 2.921,0.504 4.451,0.741 1.998,0.309 3.663,0.761 5.612,1.34 1.581,0.47 2.078,0.883 3.742,0.512 1.469,-0.326 1.714,-0.824 3.438,-0.777 1.962,0.053 3.355,1.235 4.994,1.669 1.738,0.461 3.542,-0.047 5.32,0.186 0.501,0.066 1.777,0.733 2.017,0.756 1.352,0.128 1.148,-0.058 2.551,-0.512 1.925,-0.624 4.249,-2.059 6.26,-1.897 0.318,0.025 1.353,0.702 1.97,0.778 0.852,0.106 1.927,0.057 2.773,0 0.313,-0.021 0.63,-0.065 0.949,-0.119 v -5.386 z"
   id="path7030" />
		</g><g
   id="XMLID_288_"
   transform="matrix(0.349914,0,0,0.349914,216.22825,-65.665594)">
			<g
   id="XMLID_290_">
				<path
   id="XMLID_349_"
   style="fill:#960b39"
   d="m 385.168,313.955 c 1.417,-1.602 28.158,-20.208 32.876,-29.992 0,0 14.318,4.221 15.105,17.013 l -42.826,33.288 z" />
				<g
   id="XMLID_340_">
					<path
   id="XMLID_348_"
   style="fill:#ffffff"
   d="m 433.3,291.866 c 0,0 7.066,-5.225 6.667,-8.72 -0.4,-3.496 -4.102,-8.583 -6.537,-8.464 -2.434,0.119 -6.275,5.597 -6.275,5.597 0,0 -0.339,-4.731 -2.6,-4.271 -2.261,0.46 -2.366,5.503 0.096,9.672 l -2.934,2.523 10.099,7.687 z" />
					<path
   id="XMLID_347_"
   style="fill:#e6e6e6"
   d="m 424.651,285.679 -2.934,2.523 10.099,7.687 1.483,-4.022 c 0,0 0.157,-0.118 0.405,-0.312 -7.556,-4.354 -9.485,-10.537 -9.647,-15.34 -1.758,1.066 -1.671,5.63 0.594,9.464 z" />
					<g
   id="XMLID_341_">
						<path
   id="XMLID_346_"
   style="fill:#ffffff"
   d="m 435.338,303.875 c 0.471,-0.617 0.619,-1.378 0.475,-2.083 0.405,-0.069 0.787,-0.281 1.057,-0.634 0.477,-0.624 0.446,-1.472 -0.017,-2.063 0.066,-0.069 0.129,-0.141 0.189,-0.219 0.864,-1.131 0.648,-2.749 -0.483,-3.613 -0.691,-0.528 -1.563,-0.651 -2.335,-0.41 0.024,-0.534 -0.203,-1.07 -0.66,-1.419 -0.447,-0.341 -1.008,-0.421 -1.509,-0.272 0.019,-0.797 -0.327,-1.591 -1.009,-2.112 -0.511,-0.391 -1.122,-0.559 -1.717,-0.523 -0.107,-0.288 -0.29,-0.552 -0.552,-0.752 -0.281,-0.215 -0.608,-0.327 -0.936,-0.344 0.068,-0.844 -0.279,-1.704 -1.002,-2.257 -0.693,-0.53 -1.569,-0.652 -2.342,-0.408 -0.111,-0.247 -0.276,-0.475 -0.507,-0.651 -0.466,-0.356 -1.057,-0.431 -1.573,-0.255 0.285,-0.991 -0.041,-2.098 -0.909,-2.762 -0.693,-0.53 -1.569,-0.652 -2.342,-0.408 -0.111,-0.248 -0.276,-0.475 -0.507,-0.651 -0.741,-0.566 -1.801,-0.425 -2.367,0.316 -0.034,0.044 -0.056,0.092 -0.085,0.138 -1.126,-0.793 -2.686,-0.564 -3.529,0.54 -0.47,0.615 -0.618,1.374 -0.476,2.078 -0.13,0.113 -0.251,0.241 -0.359,0.383 -0.469,0.613 -0.617,1.37 -0.477,2.072 -0.081,0.146 -0.151,0.295 -0.205,0.449 -0.198,0.109 -0.378,0.259 -0.524,0.451 -0.566,0.741 -0.425,1.8 0.316,2.367 0.231,0.176 0.493,0.276 0.761,0.319 -0.032,0.81 0.315,1.623 1.009,2.153 0.737,0.563 1.68,0.665 2.487,0.356 l 0.483,0.369 c 0.096,0.337 0.293,0.649 0.593,0.879 0.231,0.176 0.493,0.276 0.761,0.319 -0.032,0.81 0.315,1.623 1.009,2.153 0.723,0.552 1.644,0.661 2.44,0.375 0.103,0.312 0.296,0.598 0.577,0.813 0.073,0.056 0.151,0.099 0.229,0.141 -0.183,0.932 0.155,1.931 0.961,2.547 0.901,0.689 2.11,0.69 3.002,0.09 l 0.003,0.003 c 0.096,0.337 0.292,0.649 0.593,0.879 0.3,0.229 0.652,0.337 1.003,0.341 l 0.036,0.028 c -0.344,1.018 -0.026,2.184 0.875,2.873 0.722,0.552 1.641,0.661 2.437,0.376 0.067,0.074 0.139,0.144 0.221,0.207 0.741,0.566 1.801,0.425 2.367,-0.316 0.197,-0.257 0.302,-0.553 0.333,-0.853 0.825,0.048 1.663,-0.302 2.205,-1.01 z" />
						<path
   id="XMLID_345_"
   style="fill:#b2ceea"
   d="m 433.471,301.572 c -0.793,0.644 -1.949,0.69 -2.797,0.042 -0.847,-0.647 -1.107,-1.776 -0.693,-2.71 -0.136,0.11 -0.262,0.236 -0.373,0.381 -0.326,0.426 -0.475,0.931 -0.463,1.428 -0.379,0.086 -0.791,0.013 -1.125,-0.242 -0.509,-0.389 -0.665,-1.068 -0.417,-1.629 -0.082,0.066 -0.158,0.142 -0.224,0.229 -0.456,0.596 -0.342,1.45 0.254,1.906 0.463,0.354 1.079,0.36 1.546,0.068 0.094,0.541 0.382,1.049 0.852,1.409 0.992,0.758 2.411,0.569 3.17,-0.423 0.111,-0.145 0.199,-0.299 0.27,-0.459 z" />
						<path
   id="XMLID_344_"
   style="fill:#b2ceea"
   d="m 430.802,293.794 c -0.793,0.644 -1.949,0.69 -2.797,0.042 -0.847,-0.647 -1.107,-1.776 -0.693,-2.71 -0.136,0.11 -0.262,0.236 -0.373,0.381 -0.326,0.426 -0.475,0.931 -0.463,1.428 -0.379,0.086 -0.791,0.013 -1.125,-0.242 -0.509,-0.389 -0.665,-1.068 -0.417,-1.629 -0.082,0.066 -0.158,0.142 -0.224,0.229 -0.456,0.596 -0.342,1.45 0.254,1.906 0.463,0.354 1.079,0.361 1.546,0.068 0.094,0.541 0.382,1.049 0.852,1.409 0.992,0.758 2.411,0.569 3.17,-0.423 0.111,-0.144 0.199,-0.299 0.27,-0.459 z" />
						<path
   id="XMLID_343_"
   style="fill:#b2ceea"
   d="m 426.829,296.604 c -1.02,0.829 -2.509,0.888 -3.599,0.054 -1.09,-0.833 -1.424,-2.285 -0.892,-3.487 -0.175,0.142 -0.337,0.304 -0.48,0.491 -0.419,0.548 -0.612,1.198 -0.596,1.839 -0.488,0.111 -1.019,0.017 -1.448,-0.311 -0.414,-0.316 -0.646,-0.781 -0.68,-1.263 0.578,-0.167 1.111,-0.505 1.504,-1.019 0.143,-0.187 0.256,-0.386 0.347,-0.592 -1.02,0.829 -2.509,0.888 -3.599,0.054 -1.09,-0.833 -1.424,-2.286 -0.892,-3.487 -0.175,0.142 -0.337,0.304 -0.48,0.491 -0.419,0.548 -0.612,1.198 -0.596,1.839 -0.488,0.111 -1.019,0.017 -1.447,-0.311 -0.655,-0.501 -0.856,-1.374 -0.536,-2.097 -0.105,0.085 -0.203,0.183 -0.289,0.295 -0.587,0.768 -0.44,1.866 0.328,2.453 0.596,0.456 1.389,0.464 1.989,0.088 0.121,0.696 0.491,1.35 1.096,1.813 0.63,0.482 1.394,0.664 2.124,0.573 -0.164,0.657 0.062,1.378 0.634,1.815 0.596,0.456 1.389,0.464 1.989,0.088 0.121,0.696 0.491,1.35 1.096,1.813 1.277,0.976 3.103,0.732 4.079,-0.545 0.143,-0.189 0.257,-0.388 0.348,-0.594 z" />
						<path
   id="XMLID_342_"
   style="fill:#b2ceea"
   d="m 419.683,286.262 c -0.579,0.471 -1.425,0.504 -2.043,0.031 -0.619,-0.473 -0.809,-1.298 -0.507,-1.98 -0.099,0.081 -0.191,0.173 -0.273,0.279 -0.238,0.311 -0.347,0.68 -0.338,1.044 -0.277,0.063 -0.578,0.009 -0.822,-0.177 -0.372,-0.284 -0.486,-0.78 -0.305,-1.19 -0.06,0.048 -0.115,0.104 -0.164,0.167 -0.333,0.436 -0.25,1.059 0.186,1.392 0.339,0.259 0.788,0.264 1.129,0.05 0.069,0.395 0.279,0.767 0.623,1.029 0.725,0.554 1.762,0.416 2.316,-0.309 0.082,-0.106 0.147,-0.219 0.198,-0.336 z" />
					</g>
				</g>
				<path
   id="XMLID_339_"
   style="fill:#bc0c3e"
   d="m 344.492,313.65 c -1.512,-1.512 -29.345,-18.442 -34.654,-27.919 0,0 -14.033,5.092 -14.033,17.908 l 44.787,30.597 z" />
				<path
   id="XMLID_338_"
   style="fill:#d61645"
   d="m 348,378.632 c -0.884,2.54 -7.451,11.4 -7.451,24.674 0,13.274 28.355,30.341 28.355,30.341 l 11.994,-6.827 c 0,0 -10.163,-17.067 -10.163,-25.41 0,-8.344 12.144,-28.349 12.144,-28.349 z" />
				<g
   id="XMLID_323_">
					<g
   id="XMLID_324_">
						<path
   id="XMLID_337_"
   style="fill:#d61645"
   d="m 370.237,302.834 -28.693,12.055 c -1.367,0.574 -2.304,1.869 -2.422,3.347 -2.05,25.774 -2.452,49.145 2.552,64.624 0.713,2.207 3.174,3.317 5.312,2.418 L 416.7,355.99 c 2.138,-0.898 3.068,-3.433 1.991,-5.487 -7.552,-14.409 -24.526,-30.479 -44.368,-47.055 -1.139,-0.952 -2.719,-1.188 -4.086,-0.614 z" />
						<path
   id="XMLID_336_"
   style="fill:#960b39"
   d="m 370.237,302.834 -25.745,10.816 -2.948,1.239 c -0.366,0.154 -0.698,0.362 -0.995,0.609 l 2.296,2.774 c 0,0 3.609,21.03 27.203,12.547 0.275,-0.099 0.553,-0.202 0.833,-0.309 l 11.301,-0.646 c 0,0 6.832,2.928 9.955,9.236 3.122,6.308 4.834,11.727 4.834,11.727 0,0 11.604,5.839 12.514,6.117 0.383,0.117 3.892,-0.518 7.829,-1.292 1.687,-1.088 2.344,-3.307 1.378,-5.149 -7.552,-14.409 -24.526,-30.479 -44.368,-47.055 -1.14,-0.951 -2.72,-1.188 -4.087,-0.614 z" />
						<path
   id="XMLID_335_"
   style="fill:#ffffff"
   d="m 419.97,349.31 c -2.12,-0.579 -4.285,0.202 -5.586,1.805 -0.485,-0.051 -0.963,-0.039 -1.43,0.039 -0.382,-0.217 -0.785,-0.405 -1.229,-0.526 -2.307,-0.63 -4.653,0.36 -5.894,2.259 -0.257,-0.116 -0.516,-0.23 -0.797,-0.306 -1.179,-0.322 -2.365,-0.206 -3.417,0.219 -0.279,-2.076 -1.766,-3.885 -3.913,-4.471 -0.695,-0.19 -1.395,-0.228 -2.069,-0.146 0.647,-1.943 0.159,-4.17 -1.445,-5.649 -0.743,-0.685 -1.63,-1.101 -2.552,-1.292 0.209,-0.93 0.151,-1.928 -0.247,-2.874 -0.168,-0.399 -0.397,-0.748 -0.652,-1.073 1.205,-1.325 1.616,-3.27 0.877,-5.03 -0.799,-1.902 -2.692,-2.991 -4.639,-2.884 -0.039,-0.491 -0.133,-0.985 -0.335,-1.464 -0.58,-1.381 -1.743,-2.323 -3.079,-2.706 0.626,-1.208 0.751,-2.665 0.183,-4.017 -0.799,-1.902 -2.692,-2.991 -4.639,-2.884 -0.039,-0.491 -0.133,-0.985 -0.335,-1.464 -0.58,-1.38 -1.742,-2.322 -3.077,-2.705 0.32,-1.03 0.314,-2.168 -0.137,-3.241 -0.799,-1.901 -2.692,-2.991 -4.64,-2.884 -0.039,-0.492 -0.133,-0.985 -0.335,-1.464 -1.016,-2.418 -3.799,-3.554 -6.217,-2.539 -0.888,0.373 -1.598,0.987 -2.097,1.731 -1.232,-0.688 -2.747,-0.84 -4.148,-0.251 -2.418,1.016 -3.554,3.799 -2.539,6.217 0.821,1.954 2.797,3.048 4.801,2.868 -0.238,1.055 -0.173,2.187 0.277,3.26 0.553,1.317 1.575,2.287 2.786,2.822 0.048,0.451 0.138,0.904 0.323,1.344 0.821,1.954 2.797,3.048 4.801,2.868 -0.238,1.054 -0.173,2.187 0.278,3.26 0.503,1.196 1.398,2.094 2.464,2.653 -0.073,0.757 0.013,1.539 0.328,2.29 0.821,1.954 2.797,3.048 4.801,2.868 -0.239,1.054 -0.173,2.187 0.277,3.26 0.47,1.119 1.283,1.978 2.257,2.544 -0.758,1.992 -0.291,4.328 1.371,5.861 0.299,0.276 0.625,0.503 0.964,0.699 -0.511,1.154 -0.573,2.502 -0.046,3.757 0.447,1.063 1.245,1.859 2.193,2.352 -0.352,1.866 0.305,3.707 1.634,4.931 -2.189,0.181 -4.135,1.682 -4.747,3.923 -0.139,0.51 -0.174,1.02 -0.164,1.523 -0.359,0.203 -0.687,0.455 -0.992,0.735 -0.673,-0.776 -1.574,-1.369 -2.64,-1.66 -2.864,-0.782 -5.819,0.906 -6.6,3.77 -0.139,0.51 -0.174,1.02 -0.164,1.523 -0.359,0.203 -0.687,0.455 -0.992,0.735 -0.673,-0.776 -1.574,-1.369 -2.64,-1.66 -2.864,-0.781 -5.819,0.906 -6.6,3.77 -0.139,0.51 -0.174,1.02 -0.164,1.523 -0.359,0.203 -0.687,0.455 -0.992,0.735 -0.673,-0.776 -1.574,-1.369 -2.64,-1.66 -2.864,-0.781 -5.819,0.906 -6.6,3.77 -0.139,0.51 -0.174,1.02 -0.164,1.523 -0.359,0.203 -0.687,0.455 -0.992,0.735 -0.673,-0.776 -1.574,-1.369 -2.64,-1.66 -2.864,-0.781 -5.819,0.906 -6.6,3.77 -0.233,0.853 -0.224,1.708 -0.052,2.518 -0.273,0.436 -0.509,0.903 -0.652,1.426 -0.781,2.864 0.906,5.819 3.77,6.6 1.981,0.541 3.989,-0.119 5.308,-1.514 1.604,0.036 3.117,-0.65 4.153,-1.832 2.047,0.134 3.98,-0.934 4.992,-2.701 2.038,0.538 4.102,-0.179 5.405,-1.667 2.047,0.134 3.98,-0.934 4.992,-2.701 2.038,0.538 4.101,-0.179 5.405,-1.667 2.047,0.134 3.98,-0.934 4.992,-2.701 2.037,0.538 4.101,-0.179 5.405,-1.667 2.047,0.134 3.98,-0.934 4.992,-2.701 2.491,0.658 5.042,-0.542 6.165,-2.757 0.061,0.019 0.115,0.051 0.177,0.068 2.457,0.671 4.971,-0.484 6.132,-2.632 0.024,0.007 0.045,0.02 0.069,0.027 2.457,0.671 4.971,-0.484 6.132,-2.632 0.024,0.007 0.045,0.02 0.069,0.027 2.457,0.67 4.971,-0.484 6.132,-2.632 0.024,0.007 0.045,0.02 0.069,0.027 2.12,0.579 4.285,-0.202 5.586,-1.805 2.572,0.269 5.035,-1.338 5.738,-3.914 0.783,-2.866 -0.905,-5.821 -3.769,-6.602 z" />
						<path
   id="XMLID_334_"
   style="fill:#e5dfdf"
   d="m 423.74,355.91 c 0.782,-2.864 -0.906,-5.819 -3.77,-6.6 -2.12,-0.579 -4.285,0.202 -5.586,1.805 -0.485,-0.051 -0.963,-0.039 -1.43,0.039 -0.382,-0.217 -0.785,-0.405 -1.229,-0.526 -2.307,-0.63 -4.653,0.36 -5.894,2.259 -0.257,-0.116 -0.516,-0.23 -0.796,-0.306 -1.179,-0.322 -2.365,-0.206 -3.417,0.219 -0.279,-2.076 -1.766,-3.885 -3.913,-4.471 -0.695,-0.19 -1.395,-0.228 -2.069,-0.146 0.647,-1.943 0.159,-4.17 -1.445,-5.649 -0.742,-0.685 -1.63,-1.101 -2.552,-1.292 0.209,-0.93 0.15,-1.928 -0.247,-2.874 -0.168,-0.399 -0.397,-0.748 -0.652,-1.074 1.205,-1.325 1.617,-3.27 0.877,-5.03 -0.799,-1.902 -2.692,-2.991 -4.64,-2.884 -0.039,-0.491 -0.133,-0.985 -0.335,-1.464 -0.58,-1.381 -1.743,-2.323 -3.079,-2.706 0.626,-1.208 0.751,-2.665 0.183,-4.017 -0.799,-1.902 -2.692,-2.991 -4.64,-2.884 -0.039,-0.491 -0.133,-0.985 -0.335,-1.464 -0.58,-1.38 -1.742,-2.322 -3.077,-2.705 0.321,-1.03 0.314,-2.168 -0.136,-3.241 -0.799,-1.901 -2.692,-2.991 -4.64,-2.884 -0.039,-0.491 -0.133,-0.985 -0.335,-1.464 -0.274,-0.652 -0.683,-1.201 -1.172,-1.649 l -13.97,3.581 c -0.316,1.027 -0.308,2.159 0.141,3.227 0.821,1.954 2.797,3.048 4.801,2.868 -0.238,1.055 -0.173,2.187 0.277,3.26 0.553,1.317 1.575,2.287 2.786,2.822 0.048,0.451 0.138,0.904 0.323,1.344 0.821,1.954 2.797,3.048 4.801,2.868 -0.238,1.054 -0.173,2.187 0.278,3.26 0.431,1.026 1.161,1.818 2.03,2.379 3.32,-0.603 6.938,-0.56 8.815,1.732 0,0 6.235,-2.38 8.728,6.49 0,0 5.293,5.212 3.978,9.018 -1.315,3.806 4.883,1.797 5.647,7.309 0.765,5.512 5.864,-1.918 10.08,2.313 2.375,2.384 2.912,4.425 2.381,6.203 0.755,-0.484 1.394,-1.154 1.836,-1.971 0.024,0.007 0.045,0.02 0.069,0.027 2.12,0.579 4.285,-0.202 5.586,-1.805 2.576,0.267 5.039,-1.34 5.742,-3.917 z" />
						<g
   id="XMLID_332_">
							<g
   id="g630">
								<path
   id="XMLID_1579_"
   style="fill:#4c2f1d"
   d="m 379.822,353.155 c -20.666,8.683 -40.572,14.241 -41.825,14.588 l -1.255,-8.776 c 0.451,-0.125 43.638,-12.3 67.507,-28.648 l 5.954,7.021 c -8.645,5.922 -19.617,11.293 -30.381,15.815 z" />
							</g>
						</g>
						<g
   id="XMLID_328_">
							<path
   id="XMLID_329_"
   style="fill:#fcee21"
   d="m 395.894,347.77 -12.597,5.684 c -0.763,0.344 -1.587,0.164 -1.84,-0.402 l -4.078,-9.103 c -0.254,-0.566 0.159,-1.304 0.922,-1.648 l 12.597,-5.684 c 0.763,-0.345 1.587,-0.164 1.84,0.402 l 4.078,9.103 c 0.254,0.566 -0.158,1.304 -0.922,1.648 z m -12.134,3.011 9.834,-4.438 -3.16,-7.053 -9.834,4.438 z" />
						</g>
						<path
   id="XMLID_327_"
   style="fill:#b2ceea"
   d="m 389.602,364.933 c 0.17,1.828 -0.918,3.602 -2.733,4.221 -1.814,0.618 -3.76,-0.122 -4.742,-1.673 0.029,0.313 0.091,0.628 0.197,0.938 0.311,0.913 0.916,1.641 1.672,2.12 -0.25,0.653 -0.772,1.196 -1.485,1.439 -0.689,0.235 -1.409,0.142 -1.995,-0.192 0.255,-0.8 0.277,-1.682 -0.015,-2.538 -0.106,-0.311 -0.249,-0.598 -0.417,-0.863 0.17,1.828 -0.918,3.603 -2.733,4.221 -1.814,0.619 -3.76,-0.121 -4.742,-1.673 0.029,0.313 0.091,0.628 0.197,0.938 0.311,0.913 0.916,1.641 1.672,2.12 -0.25,0.653 -0.772,1.196 -1.485,1.439 -1.091,0.372 -2.26,-0.073 -2.851,-1.006 0.017,0.188 0.055,0.377 0.118,0.564 0.436,1.277 1.824,1.96 3.102,1.525 0.992,-0.338 1.617,-1.252 1.647,-2.241 0.902,0.4 1.949,0.479 2.957,0.135 1.049,-0.358 1.854,-1.103 2.316,-2.021 0.635,0.7 1.647,0.998 2.599,0.673 0.992,-0.338 1.617,-1.252 1.647,-2.241 0.902,0.4 1.949,0.479 2.957,0.135 2.125,-0.724 3.26,-3.034 2.536,-5.159 -0.107,-0.309 -0.251,-0.595 -0.419,-0.861 z" />
						<path
   id="XMLID_326_"
   style="fill:#b2ceea"
   d="m 364.11,375.171 c 0.17,1.828 -0.918,3.603 -2.733,4.221 -1.814,0.618 -3.76,-0.122 -4.742,-1.673 0.029,0.313 0.091,0.628 0.197,0.938 0.311,0.913 0.916,1.641 1.672,2.12 -0.25,0.653 -0.772,1.196 -1.485,1.439 -0.689,0.235 -1.409,0.142 -1.995,-0.192 0.255,-0.8 0.277,-1.682 -0.015,-2.538 -0.106,-0.311 -0.249,-0.597 -0.417,-0.863 0.17,1.828 -0.919,3.603 -2.733,4.221 -1.814,0.619 -3.76,-0.121 -4.742,-1.673 0.029,0.313 0.091,0.628 0.197,0.938 0.311,0.913 0.916,1.641 1.672,2.12 -0.25,0.653 -0.772,1.196 -1.485,1.439 -1.091,0.372 -2.26,-0.073 -2.851,-1.006 0.017,0.188 0.055,0.378 0.118,0.564 0.436,1.277 1.824,1.96 3.102,1.525 0.992,-0.338 1.617,-1.252 1.647,-2.241 0.902,0.4 1.949,0.479 2.957,0.135 1.049,-0.358 1.854,-1.103 2.316,-2.021 0.635,0.7 1.647,0.998 2.599,0.673 0.992,-0.338 1.617,-1.252 1.647,-2.241 0.902,0.4 1.949,0.479 2.957,0.135 2.125,-0.725 3.26,-3.035 2.536,-5.16 -0.108,-0.307 -0.251,-0.594 -0.419,-0.86 z" />
						<path
   id="XMLID_325_"
   style="fill:#b2ceea"
   d="m 404.504,356.153 c 0.706,1.459 0.354,3.262 -0.954,4.335 -1.309,1.072 -3.146,1.062 -4.438,0.083 0.121,0.25 0.269,0.491 0.453,0.715 0.54,0.659 1.265,1.074 2.038,1.236 -0.005,0.617 -0.268,1.227 -0.783,1.649 -0.787,0.645 -1.891,0.638 -2.668,0.05 0.073,0.15 0.162,0.295 0.272,0.43 0.755,0.922 2.114,1.057 3.036,0.302 0.716,-0.586 0.95,-1.535 0.669,-2.362 0.869,0.052 1.759,-0.207 2.486,-0.802 1.533,-1.256 1.758,-3.517 0.502,-5.05 -0.185,-0.225 -0.392,-0.418 -0.613,-0.586 z" />
					</g>
				</g>
				<path
   id="XMLID_322_"
   style="fill:#b2ceea"
   d="m 360.074,281.308 c -0.379,1.576 -1.793,2.748 -3.485,2.748 -1.692,0 -3.107,-1.172 -3.485,-2.748 -0.065,0.27 -0.103,0.55 -0.103,0.84 0,0.851 0.298,1.632 0.793,2.247 -0.395,0.474 -0.985,0.779 -1.651,0.779 -1.017,0 -1.868,-0.705 -2.095,-1.652 -0.039,0.162 -0.062,0.331 -0.062,0.505 0,1.191 0.966,2.157 2.157,2.157 0.925,0 1.708,-0.585 2.014,-1.403 0.64,0.591 1.492,0.955 2.432,0.955 1.982,0 3.588,-1.607 3.588,-3.588 0,-0.29 -0.038,-0.57 -0.103,-0.84 z" />
				<path
   id="XMLID_321_"
   style="fill:#b2ceea"
   d="m 373.897,280.855 c -0.379,1.576 -1.793,2.748 -3.485,2.748 -1.692,0 -3.107,-1.173 -3.485,-2.748 -0.065,0.27 -0.103,0.55 -0.103,0.84 0,0.851 0.298,1.632 0.793,2.247 -0.395,0.474 -0.985,0.779 -1.651,0.779 -1.017,0 -1.868,-0.705 -2.095,-1.652 -0.039,0.162 -0.062,0.331 -0.062,0.505 0,1.191 0.966,2.157 2.157,2.157 0.925,0 1.708,-0.585 2.014,-1.403 0.64,0.591 1.492,0.955 2.432,0.955 1.982,0 3.588,-1.607 3.588,-3.588 0,-0.289 -0.038,-0.57 -0.103,-0.84 z" />
				<g
   id="XMLID_304_">
					<path
   id="XMLID_320_"
   style="fill:#fec6b5"
   d="m 379.508,274.139 c 0,0 -0.396,9.101 3.165,15.432 3.561,6.331 5.54,17.212 -10.09,22.752 -15.63,5.54 -27.5,-1.385 -31.655,-8.112 -4.155,-6.727 -1.385,-24.335 -1.385,-24.335 0,0 19.983,-10.881 39.965,-5.737 z" />
					<path
   id="XMLID_319_"
   style="fill:#ffffff"
   d="m 369.146,299.01 c 0,0 -4.938,-5.383 -13.511,0.025 0,0 0.659,-5.276 -5.144,-6.067 0,0 -0.923,-3.957 -3.693,-3.957 0,0 1.583,-2.374 -1.319,-4.089 l -6.727,1.451 c 0,0 -5.803,6.727 -0.527,13.585 0,0 -3.561,3.165 0.132,6.859 0,0 -2.11,4.221 1.846,8.969 3.957,4.748 8.177,4.089 8.177,4.089 0,0 1.847,4.748 6.067,6.067 4.221,1.319 6.859,-0.396 6.859,-0.396 0,0 4.88,3.297 10.947,2.374 6.067,-0.923 6.727,-4.352 6.727,-4.352 0,0 5.012,-0.528 8.705,-4.089 3.693,-3.561 0.66,-10.42 0.66,-10.42 0,0 2.781,-5.715 1.451,-9.876 -1.533,-4.798 -5.095,-5.49 -5.095,-5.49 0,0 -0.709,-3.891 -3.215,-6.793 0,0 -1.319,5.803 -0.264,8.441 0,0 -4.089,-1.583 -6.199,2.374 10e-4,0.001 -2.093,3.174 -5.877,1.295 z" />
					<g
   id="XMLID_312_">
						<path
   id="XMLID_318_"
   style="fill:#d61645"
   d="m 377.646,270.396 c 0,0 -10.704,-22.407 -19.52,-24.763 -8.816,-2.356 -29.058,11.662 -34.454,25.248 l 1.044,1.427 c 0,0 10.727,-3.903 15.011,-6.073 0,0 -1.353,9.052 -0.878,11.858 0.475,2.808 38.797,-7.697 38.797,-7.697 z" />
						<path
   id="XMLID_317_"
   style="fill:#a00e38"
   d="m 344.814,266.915 c -1.02,-6.02 7.093,-14.934 2.805,-14.207 -4.196,0.711 -16.865,16.629 -23.368,18.967 l 0.464,0.634 c 0,0 10.727,-3.903 15.011,-6.073 0,0 -1.353,9.052 -0.878,11.858 0.205,1.209 7.43,-0.052 15.589,-1.879 -4.149,-2.399 -9.046,-5.898 -9.623,-9.3 z" />
						<path
   id="XMLID_316_"
   style="fill:#ffffff"
   d="m 383.014,274.138 c -0.229,-1.349 -1.22,-2.347 -2.396,-2.576 0.018,-0.261 0.016,-0.526 -0.03,-0.797 -0.288,-1.7 -1.784,-2.865 -3.342,-2.6 -0.744,0.126 -1.361,0.56 -1.777,1.159 -0.591,-0.428 -1.317,-0.635 -2.06,-0.509 -0.744,0.126 -1.361,0.56 -1.777,1.159 -0.591,-0.428 -1.316,-0.635 -2.06,-0.509 -0.744,0.126 -1.361,0.56 -1.778,1.159 -0.591,-0.428 -1.316,-0.635 -2.06,-0.509 -0.744,0.126 -1.361,0.56 -1.777,1.159 -0.591,-0.428 -1.317,-0.635 -2.06,-0.509 -0.743,0.126 -1.361,0.56 -1.777,1.159 -0.591,-0.428 -1.317,-0.635 -2.06,-0.509 -0.744,0.126 -1.361,0.56 -1.777,1.159 -0.591,-0.428 -1.316,-0.635 -2.06,-0.509 -0.744,0.126 -1.361,0.56 -1.778,1.159 -0.591,-0.428 -1.316,-0.635 -2.06,-0.509 -0.744,0.126 -1.361,0.56 -1.777,1.159 -0.591,-0.428 -1.317,-0.635 -2.06,-0.509 -0.744,0.126 -1.361,0.56 -1.777,1.159 -0.591,-0.428 -1.317,-0.635 -2.06,-0.509 -0.863,0.146 -1.552,0.708 -1.957,1.462 -0.534,-0.278 -1.154,-0.4 -1.793,-0.292 -1.557,0.264 -2.606,1.741 -2.342,3.298 0.007,0.041 0.024,0.078 0.033,0.119 -1.122,0.538 -1.808,1.759 -1.59,3.046 0.181,1.071 0.941,1.888 1.901,2.217 -0.056,0.316 -0.071,0.644 -0.015,0.978 0.264,1.558 1.741,2.606 3.298,2.342 0.449,-0.076 0.847,-0.261 1.192,-0.511 0.252,0.012 0.508,0 0.766,-0.026 0.576,0.388 1.266,0.575 1.976,0.455 0.701,-0.119 1.285,-0.515 1.7,-1.061 l 0.184,-0.031 c 0.571,0.378 1.253,0.56 1.954,0.441 0.701,-0.119 1.284,-0.515 1.7,-1.061 l 0.184,-0.031 c 0.571,0.378 1.253,0.56 1.954,0.441 0.701,-0.119 1.285,-0.515 1.7,-1.061 l 0.184,-0.031 c 0.572,0.378 1.254,0.56 1.954,0.441 0.701,-0.119 1.285,-0.515 1.699,-1.061 l 0.184,-0.031 c 0.572,0.378 1.253,0.56 1.954,0.441 0.701,-0.119 1.285,-0.515 1.7,-1.061 l 0.184,-0.031 c 0.572,0.378 1.253,0.56 1.954,0.441 0.701,-0.119 1.285,-0.515 1.7,-1.061 l 0.184,-0.031 c 0.571,0.378 1.253,0.56 1.954,0.441 0.701,-0.119 1.285,-0.515 1.7,-1.061 l 0.184,-0.031 c 0.572,0.378 1.253,0.56 1.954,0.441 0.701,-0.119 1.285,-0.515 1.699,-1.061 l 0.184,-0.031 c 0.572,0.378 1.254,0.56 1.954,0.441 0.701,-0.119 1.285,-0.515 1.699,-1.061 l 0.732,-0.124 c 0.057,-0.01 0.112,-0.026 0.168,-0.037 0.574,0.383 1.26,0.568 1.965,0.448 1.557,-0.264 2.586,-1.856 2.298,-3.556 -0.015,-0.088 -0.046,-0.169 -0.067,-0.254 0.988,-0.612 1.56,-1.856 1.337,-3.173 z" />
						<path
   id="XMLID_315_"
   style="fill:#e6e6e6"
   d="m 379.922,278.074 -0.184,0.031 c -0.415,0.545 -0.999,0.942 -1.7,1.061 -0.701,0.119 -1.383,-0.063 -1.954,-0.441 l -0.184,0.031 c -0.415,0.545 -0.999,0.942 -1.7,1.061 -0.701,0.119 -1.383,-0.063 -1.954,-0.441 l -0.184,0.031 c -0.415,0.546 -0.999,0.942 -1.7,1.061 -0.701,0.119 -1.383,-0.063 -1.954,-0.441 l -0.184,0.031 c -0.415,0.545 -0.999,0.942 -1.699,1.061 -0.701,0.119 -1.383,-0.063 -1.954,-0.441 l -0.184,0.031 c -0.415,0.545 -0.999,0.942 -1.7,1.061 -0.701,0.119 -1.382,-0.063 -1.954,-0.441 l -0.184,0.031 c -0.415,0.545 -0.999,0.942 -1.7,1.061 -0.701,0.119 -1.383,-0.063 -1.954,-0.441 l -0.184,0.031 c -0.415,0.545 -0.999,0.942 -1.7,1.061 -0.701,0.119 -1.383,-0.063 -1.954,-0.441 l -0.184,0.031 c -0.415,0.545 -0.999,0.942 -1.7,1.061 -0.71,0.12 -1.4,-0.067 -1.976,-0.455 -0.258,0.027 -0.514,0.038 -0.766,0.026 -0.345,0.25 -0.744,0.435 -1.192,0.511 -1.557,0.264 -3.034,-0.785 -3.298,-2.342 -0.057,-0.335 -0.042,-0.662 0.015,-0.978 -0.96,-0.329 -1.719,-1.146 -1.901,-2.217 -0.218,-1.288 0.468,-2.508 1.59,-3.046 -0.009,-0.041 -0.026,-0.077 -0.033,-0.119 -0.061,-0.362 -0.045,-0.718 0.025,-1.057 -0.302,-0.059 -0.614,-0.077 -0.931,-0.023 -0.863,0.146 -1.552,0.708 -1.957,1.462 -0.534,-0.278 -1.154,-0.4 -1.793,-0.292 -1.557,0.264 -2.606,1.741 -2.342,3.298 0.007,0.041 0.024,0.078 0.033,0.119 -1.122,0.538 -1.808,1.759 -1.59,3.046 0.181,1.071 0.941,1.888 1.901,2.217 -0.056,0.316 -0.071,0.644 -0.015,0.978 0.264,1.558 1.741,2.606 3.298,2.342 0.449,-0.076 0.847,-0.261 1.192,-0.511 0.252,0.012 0.508,0 0.766,-0.026 0.576,0.388 1.266,0.575 1.976,0.455 0.701,-0.119 1.285,-0.515 1.7,-1.061 l 0.184,-0.031 c 0.571,0.378 1.253,0.56 1.954,0.441 0.701,-0.119 1.284,-0.515 1.7,-1.061 l 0.184,-0.031 c 0.571,0.378 1.253,0.56 1.954,0.441 0.701,-0.119 1.285,-0.515 1.7,-1.061 l 0.184,-0.031 c 0.572,0.378 1.254,0.56 1.954,0.441 0.701,-0.119 1.285,-0.515 1.699,-1.061 l 0.184,-0.031 c 0.572,0.378 1.253,0.56 1.954,0.441 0.701,-0.119 1.285,-0.515 1.7,-1.061 l 0.184,-0.031 c 0.572,0.378 1.253,0.56 1.954,0.441 0.701,-0.119 1.285,-0.515 1.7,-1.061 l 0.184,-0.031 c 0.571,0.378 1.253,0.56 1.954,0.441 0.701,-0.119 1.285,-0.515 1.7,-1.061 l 0.184,-0.031 c 0.572,0.378 1.253,0.56 1.954,0.441 0.701,-0.119 1.285,-0.515 1.699,-1.061 l 0.184,-0.031 c 0.572,0.378 1.254,0.56 1.954,0.441 0.701,-0.119 1.285,-0.515 1.699,-1.061 l 0.732,-0.124 c 0.057,-0.01 0.112,-0.026 0.168,-0.037 0.574,0.383 1.26,0.568 1.965,0.448 1.26,-0.214 2.16,-1.3 2.311,-2.606 -0.655,0.08 -1.292,-0.093 -1.83,-0.449 z" />
						<path
   id="XMLID_314_"
   style="fill:#ffffff"
   d="m 330.831,270.25 c -0.232,-1.369 -1.53,-2.29 -2.898,-2.058 -0.111,0.019 -0.214,0.055 -0.32,0.088 -0.793,-1.19 -2.232,-1.872 -3.733,-1.618 -0.637,0.108 -1.196,0.384 -1.671,0.756 -0.551,-0.499 -1.311,-0.757 -2.1,-0.624 -1.369,0.232 -2.29,1.53 -2.058,2.898 0.05,0.298 0.159,0.569 0.3,0.817 -0.713,0.816 -1.08,1.924 -0.885,3.076 0.081,0.481 0.257,0.92 0.496,1.313 -0.442,0.542 -0.664,1.258 -0.538,2.001 0.232,1.369 1.529,2.29 2.898,2.058 0.443,-0.075 0.831,-0.27 1.156,-0.534 0.757,0.486 1.684,0.714 2.64,0.552 1.035,-0.175 1.895,-0.763 2.448,-1.563 0.352,0.043 0.712,0.055 1.079,-0.008 2.037,-0.345 3.408,-2.276 3.063,-4.313 -0.058,-0.342 -0.175,-0.656 -0.315,-0.956 0.378,-0.525 0.555,-1.195 0.438,-1.885 z" />
						<path
   id="XMLID_313_"
   style="fill:#e6e6e6"
   d="m 330.831,270.25 c -0.16,-0.946 -0.834,-1.667 -1.684,-1.953 -0.081,0.26 -0.193,0.508 -0.35,0.726 0.141,0.3 0.257,0.614 0.315,0.956 0.345,2.037 -1.026,3.967 -3.063,4.313 -0.368,0.062 -0.727,0.051 -1.08,0.008 -0.553,0.8 -1.413,1.387 -2.448,1.563 -0.957,0.162 -1.884,-0.065 -2.64,-0.552 -0.325,0.264 -0.714,0.459 -1.156,0.534 -0.422,0.072 -0.833,0.023 -1.213,-0.105 -0.116,0.363 -0.157,0.755 -0.089,1.158 0.232,1.369 1.53,2.29 2.898,2.058 0.443,-0.075 0.831,-0.27 1.156,-0.534 0.757,0.486 1.684,0.714 2.64,0.552 1.035,-0.175 1.895,-0.763 2.448,-1.563 0.352,0.043 0.712,0.055 1.079,-0.008 2.037,-0.345 3.408,-2.276 3.063,-4.313 -0.058,-0.342 -0.175,-0.657 -0.315,-0.956 0.379,-0.524 0.556,-1.194 0.439,-1.884 z" />
					</g>
					<path
   id="XMLID_311_"
   style="fill:#3a3a3c"
   d="m 362.955,290.164 c 0,1.147 -0.531,2.077 -1.187,2.077 -0.656,0 -1.187,-0.93 -1.187,-2.077 0,-1.147 0.531,-2.077 1.187,-2.077 0.656,0 1.187,0.93 1.187,2.077 z" />
					<path
   id="XMLID_310_"
   style="fill:#f99787"
   d="m 374.081,291.454 -2.355,-3.961 -0.047,3.817 c 0,0 6.375,4.351 0.672,8.221 0.1,0.007 0.196,0.03 0.298,0.03 2.313,0 4.188,-1.875 4.188,-4.188 0,-1.806 -1.151,-3.332 -2.756,-3.919 z" />
					<path
   id="XMLID_309_"
   style="fill:#ff8d9b"
   d="m 364.868,294.55 c 0,0.874 -1.904,1.583 -4.254,1.583 -2.349,0 -4.254,-0.709 -4.254,-1.583 0,-0.874 1.905,-1.583 4.254,-1.583 2.349,0 4.254,0.709 4.254,1.583 z" />
					<path
   id="XMLID_308_"
   style="fill:#3a3a3c"
   d="m 377.926,288.45 c 0,1.147 -0.531,2.077 -1.187,2.077 -0.656,0 -1.187,-0.93 -1.187,-2.077 0,-1.147 0.531,-2.077 1.187,-2.077 0.656,0 1.187,0.929 1.187,2.077 z" />
					<path
   id="XMLID_307_"
   style="fill:#ff8d9b"
   d="m 380.497,292.308 c 0,0.874 -0.945,1.583 -2.11,1.583 -1.165,0 -2.11,-0.709 -2.11,-1.583 0,-0.874 0.945,-1.583 2.11,-1.583 1.165,0 2.11,0.709 2.11,1.583 z" />
					<path
   id="XMLID_306_"
   style="fill:#343456"
   d="m 370.588,306.502 c 0,2.774 1.273,5.023 2.844,5.023 1.571,0 2.844,-2.113 2.119,-5.023 0.424,-2.749 -0.297,-5.008 -2.119,-5.023 -1.571,-0.013 -2.844,2.249 -2.844,5.023 z" />
					<path
   id="XMLID_305_"
   style="fill:#fc6b76"
   d="m 373.432,311.526 c -1.268,0 -2.33,-1.476 -2.697,-3.501 0.534,-0.468 1.225,-0.761 1.991,-0.761 1.358,0 2.493,0.897 2.881,2.127 -0.338,1.316 -1.198,2.135 -2.175,2.135 z" />
				</g>
				<g
   id="XMLID_295_">
					<path
   id="XMLID_303_"
   style="fill:#ffffff"
   d="m 295.096,294.556 c 0,0 -7.374,-4.781 -7.189,-8.295 0.185,-3.514 3.568,-8.818 6.005,-8.849 2.437,-0.031 6.607,5.201 6.607,5.201 0,0 0.048,-4.743 2.333,-4.422 2.285,0.321 2.699,5.347 0.497,9.659 l 3.083,2.338 -9.608,8.292 z" />
					<path
   id="XMLID_302_"
   style="fill:#e6e6e6"
   d="m 303.349,287.85 3.083,2.338 -9.608,8.292 -1.727,-3.924 c 0,0 -0.164,-0.108 -0.423,-0.287 7.275,-4.809 8.82,-11.099 8.687,-15.903 1.82,0.957 2.013,5.518 -0.012,9.484 z" />
					<g
   id="XMLID_296_">
						<path
   id="XMLID_301_"
   style="fill:#ffffff"
   d="m 293.799,306.667 c -0.508,-0.587 -0.702,-1.337 -0.602,-2.05 -0.409,-0.044 -0.803,-0.233 -1.094,-0.568 -0.515,-0.594 -0.536,-1.442 -0.109,-2.06 -0.07,-0.065 -0.138,-0.133 -0.202,-0.207 -0.932,-1.076 -0.816,-2.704 0.26,-3.636 0.657,-0.57 1.521,-0.746 2.306,-0.553 -0.057,-0.531 0.137,-1.08 0.571,-1.457 0.425,-0.368 0.98,-0.482 1.489,-0.364 -0.068,-0.794 0.229,-1.609 0.877,-2.17 0.486,-0.421 1.085,-0.626 1.682,-0.628 0.089,-0.294 0.256,-0.568 0.505,-0.784 0.267,-0.232 0.586,-0.363 0.913,-0.4 -0.119,-0.838 0.174,-1.718 0.862,-2.314 0.66,-0.572 1.526,-0.747 2.313,-0.551 0.096,-0.254 0.247,-0.491 0.466,-0.681 0.443,-0.384 1.029,-0.495 1.554,-0.351 -0.346,-0.971 -0.088,-2.096 0.738,-2.812 0.659,-0.572 1.526,-0.747 2.313,-0.551 0.096,-0.254 0.247,-0.491 0.466,-0.681 0.705,-0.611 1.771,-0.534 2.382,0.17 0.036,0.042 0.062,0.088 0.093,0.132 1.075,-0.861 2.646,-0.728 3.556,0.322 0.507,0.585 0.702,1.334 0.602,2.045 0.137,0.105 0.265,0.225 0.382,0.36 0.506,0.583 0.7,1.329 0.603,2.038 0.09,0.14 0.169,0.285 0.232,0.435 0.204,0.097 0.393,0.235 0.551,0.417 0.611,0.705 0.534,1.771 -0.17,2.382 -0.22,0.19 -0.475,0.306 -0.74,0.365 0.082,0.807 -0.215,1.64 -0.875,2.211 -0.701,0.608 -1.636,0.767 -2.461,0.508 l -0.459,0.398 c -0.075,0.343 -0.252,0.666 -0.538,0.913 -0.219,0.19 -0.475,0.306 -0.74,0.365 0.082,0.807 -0.215,1.64 -0.874,2.211 -0.688,0.596 -1.6,0.761 -2.413,0.524 -0.083,0.318 -0.259,0.615 -0.526,0.847 -0.069,0.06 -0.144,0.108 -0.22,0.155 0.24,0.919 -0.036,1.936 -0.803,2.601 -0.857,0.743 -2.063,0.818 -2.99,0.274 l -0.003,0.003 c -0.075,0.343 -0.252,0.666 -0.538,0.913 -0.285,0.247 -0.63,0.376 -0.98,0.402 l -0.035,0.03 c 0.406,0.995 0.16,2.178 -0.697,2.921 -0.687,0.595 -1.598,0.761 -2.41,0.525 -0.063,0.078 -0.13,0.153 -0.208,0.22 -0.705,0.611 -1.771,0.534 -2.382,-0.17 -0.212,-0.244 -0.336,-0.533 -0.384,-0.831 -0.821,0.103 -1.679,-0.194 -2.263,-0.868 z" />
						<path
   id="XMLID_300_"
   style="fill:#b2ceea"
   d="m 295.521,304.253 c 0.831,0.594 1.988,0.569 2.794,-0.129 0.806,-0.698 0.996,-1.84 0.526,-2.747 0.142,0.102 0.276,0.22 0.396,0.358 0.351,0.405 0.532,0.9 0.55,1.397 0.384,0.063 0.791,-0.035 1.108,-0.31 0.484,-0.42 0.599,-1.106 0.316,-1.651 0.086,0.061 0.166,0.132 0.238,0.215 0.492,0.567 0.43,1.426 -0.137,1.918 -0.441,0.382 -1.055,0.426 -1.538,0.163 -0.061,0.546 -0.316,1.071 -0.764,1.458 -0.944,0.818 -2.372,0.716 -3.19,-0.228 -0.122,-0.139 -0.219,-0.288 -0.299,-0.444 z" />
						<path
   id="XMLID_299_"
   style="fill:#b2ceea"
   d="m 297.707,296.327 c 0.831,0.594 1.988,0.569 2.794,-0.129 0.806,-0.698 0.996,-1.84 0.526,-2.747 0.142,0.102 0.276,0.22 0.396,0.358 0.351,0.405 0.532,0.9 0.55,1.397 0.384,0.063 0.791,-0.035 1.108,-0.31 0.484,-0.42 0.599,-1.106 0.316,-1.652 0.086,0.061 0.166,0.132 0.238,0.215 0.492,0.567 0.43,1.426 -0.137,1.917 -0.441,0.382 -1.055,0.426 -1.538,0.163 -0.061,0.546 -0.316,1.071 -0.764,1.458 -0.944,0.818 -2.372,0.716 -3.19,-0.228 -0.121,-0.137 -0.218,-0.286 -0.299,-0.442 z" />
						<path
   id="XMLID_298_"
   style="fill:#b2ceea"
   d="m 301.845,298.888 c 1.069,0.765 2.559,0.732 3.596,-0.167 1.037,-0.898 1.281,-2.369 0.677,-3.536 0.183,0.131 0.355,0.283 0.509,0.46 0.452,0.522 0.684,1.159 0.707,1.799 0.494,0.081 1.018,-0.046 1.426,-0.399 0.394,-0.341 0.596,-0.82 0.601,-1.302 -0.587,-0.131 -1.14,-0.436 -1.564,-0.925 -0.154,-0.178 -0.28,-0.37 -0.383,-0.57 1.069,0.765 2.559,0.732 3.596,-0.167 1.037,-0.899 1.281,-2.369 0.677,-3.536 0.183,0.131 0.355,0.283 0.509,0.46 0.452,0.522 0.684,1.159 0.708,1.799 0.494,0.081 1.018,-0.046 1.426,-0.399 0.624,-0.54 0.77,-1.424 0.407,-2.126 0.11,0.079 0.214,0.17 0.306,0.277 0.633,0.73 0.554,1.835 -0.177,2.468 -0.567,0.491 -1.358,0.548 -1.98,0.21 -0.078,0.702 -0.407,1.378 -0.983,1.877 -0.6,0.52 -1.351,0.748 -2.085,0.703 0.204,0.646 0.023,1.379 -0.521,1.85 -0.567,0.491 -1.358,0.548 -1.98,0.21 -0.078,0.702 -0.407,1.378 -0.983,1.877 -1.215,1.052 -3.053,0.921 -4.105,-0.294 -0.154,-0.177 -0.28,-0.369 -0.384,-0.569 z" />
						<path
   id="XMLID_297_"
   style="fill:#b2ceea"
   d="m 308.343,288.127 c 0.607,0.434 1.453,0.416 2.042,-0.095 0.589,-0.51 0.728,-1.345 0.384,-2.007 0.104,0.074 0.202,0.16 0.289,0.261 0.257,0.296 0.388,0.658 0.402,1.021 0.28,0.046 0.578,-0.026 0.81,-0.227 0.354,-0.307 0.437,-0.809 0.231,-1.207 0.063,0.045 0.121,0.096 0.174,0.157 0.359,0.415 0.314,1.042 -0.1,1.401 -0.322,0.279 -0.771,0.311 -1.124,0.119 -0.044,0.399 -0.231,0.782 -0.558,1.066 -0.69,0.598 -1.733,0.523 -2.331,-0.167 -0.089,-0.1 -0.16,-0.209 -0.219,-0.322 z" />
					</g>
				</g>
				<path
   id="XMLID_294_"
   style="fill:#960b39"
   d="m 421.909,358.685 -19.869,-8.404 10.767,19.271 1.707,3.509 c -0.001,0 12.434,-5.084 7.395,-14.376 z" />
				<path
   id="XMLID_293_"
   style="fill:#d61645"
   d="m 408.528,356.202 c 0,0 -12.316,-16.368 -24.624,-4.06 -9.355,9.355 13.918,45.005 13.918,45.005 l 19.281,-11.072 c 0,0.001 1.328,-17.453 -8.575,-29.873 z" />
				<path
   id="XMLID_292_"
   style="fill:#00b79d"
   d="m 373.926,444.981 c -28.842,20.381 -46.868,-4.076 -20.547,-24.99 l 64.385,-51.156 c 27.809,-22.095 58.556,3.79 27.443,25.776 z" />
				<path
   id="XMLID_291_"
   style="fill:#068973"
   d="m 445.207,394.611 c 17.308,-12.231 15.468,-25.664 5.643,-31.377 -7.913,-3.116 -19.422,-1.917 -30.471,6.862 l -64.385,51.156 c -15.237,12.107 -15.612,25.4 -7.632,30.496 6.015,2.123 15.072,0.647 25.563,-6.767 z" />
			</g>
			<ellipse
   id="XMLID_289_"
   style="fill:#c0bfbc;fill-opacity:0.539326"
   cx="372.08499"
   cy="465.49799"
   rx="37.067001"
   ry="6.8150001" />
		</g></svg>
