<?xml version="1.0" encoding="UTF-8" standalone="no"?>
<!-- Generator: Adobe Illustrator 27.5.0, SVG Export Plug-In . SVG Version: 6.00 Build 0)  -->

<svg
   version="1.1"
   x="0px"
   y="0px"
   viewBox="0 0 2500 2000"
   style="enable-background:new 0 0 2500 2000;"
   xml:space="preserve"
   id="svg438"
   sodipodi:docname="ilustration.svg"
   inkscape:version="1.2.2 (732a01da63, 2022-12-09)"
   xmlns:inkscape="http://www.inkscape.org/namespaces/inkscape"
   xmlns:sodipodi="http://sodipodi.sourceforge.net/DTD/sodipodi-0.dtd"
   xmlns="http://www.w3.org/2000/svg"
   xmlns:svg="http://www.w3.org/2000/svg"><defs
   id="defs442" /><sodipodi:namedview
   id="namedview440"
   pagecolor="#505050"
   bordercolor="#eeeeee"
   borderopacity="1"
   inkscape:showpageshadow="0"
   inkscape:pageopacity="0"
   inkscape:pagecheckerboard="0"
   inkscape:deskcolor="#505050"
   showgrid="false"
   inkscape:zoom="0.4145"
   inkscape:cx="1112.1834"
   inkscape:cy="1001.2063"
   inkscape:window-width="1920"
   inkscape:window-height="1009"
   inkscape:window-x="-8"
   inkscape:window-y="-8"
   inkscape:window-maximized="1"
   inkscape:current-layer="svg438" />

<g
   id="object">
	
	<g
   id="g435">
		<circle
   style="fill:#FF945F;"
   cx="1445.587"
   cy="427.199"
   r="77.481"
   id="circle7" />
		<path
   style="fill:#EDF9F7;"
   d="M191.494,1642.492c0,0-124.043-75.312-65.344-180.526    c58.699-105.215-73.097-209.322,15.505-310.107c88.602-100.785,115.183-16.613,172.774-99.677    c57.591-83.064,55.376-106.322,163.914-87.494c108.537,18.828,87.385-289.142,342.17-273.597    c254.786,15.544,163.968-178.273,388.796-114.036c224.828,64.237,349.178,120.24,405.508,210.19    c56.33,89.95,182.588,62.261,284.48,20.176c101.892-42.086,173.881,18.828,182.742,100.785    c8.86,81.957,108.538,62.021,156.161,134.01c47.624,71.989-94.139,171.666-15.505,234.795    c78.634,63.129,170.559,131.796,103,357.731L191.494,1642.492z"
   id="path9" />
		<g
   id="g31">
			<path
   style="fill:#D3ECF0;"
   d="M447.728,1022.691c-0.042-0.255-0.017-0.501,0.077-0.763     c2.068-5.767,28.563-74.368,125.661-96.121c101.389-22.714,184.351-15.511,239.624,0.651     c55.273,16.161,95.971,43.125,84.914,40.866c-11.058-2.259-99.626-36.773-95.681-34.576c3.945,2.198,84.062,60.873,72.533,57.962     c-11.53-2.912-52.99-39.078-86.011-44.013c-33.02-4.935-37.757-6.599-37.757-6.599s48.008,14.26,58.564,25.602     c4.959,5.328,12.946,12.687,20.022,18.994c1.473,1.313-0.725,3.741-2.5,2.764c-11.659-6.421-27.355-14.283-41.083-18.498     c-14.258-4.377-37.776-9.066-55.923-12.378c-2.132-0.389-3.483,2.514-1.504,3.233c10.558,3.836,22.391,8.87,30.697,14.542     c5.24,3.578,9.88,6.714,13.843,9.373c1.673,1.123-0.256,3.754-2.176,2.968c-24.284-9.945-66.539-26.59-84.166-29.515     c-4.589-0.762-9.03-1.526-13.226-2.269c-2.164-0.383-3.477,2.582-1.44,3.253c25.648,8.443,59.739,21.498,73.671,35.008     c23.64,22.922,23.64,22.922,23.64,22.922s-16.874-18.453-57.215-30.255c-21.404-6.262-42.867-10.311-58.301-12.732     c-2.172-0.341-3.422,2.629-1.378,3.272c18.189,5.719,42.671,14.31,50.563,21.295l6.205,5.492     c1.358,1.202-0.411,3.503-2.225,2.891c-20.95-7.066-74.144-23.342-118.028-22.734l-36.506,0.505     c-2.213,0.031-2.954,2.987-0.839,3.347c16.067,2.74,37.334,6.607,41.606,8.56c7.04,3.22,7.04,3.22,7.04,3.22     s-29.443-5.899-62.69-4.119c-15.514,0.831-25.201,1.803-31.122,2.605c-2.045,0.277-2.585,2.903-0.678,3.314     c13.817,2.978,41.024,8.884,43.048,9.64c2.721,1.016,2.721,1.016,2.721,1.016s-37.845-5.09-56.191,11.902     c-18.346,16.993-24.007,31.977-34.846,23.502C450.813,1039.109,448.132,1025.154,447.728,1022.691z"
   id="path11" />
			<path
   style="fill:#AFD9DD;"
   d="M460.007,1012.57l30.244-89.088c1.147-3.379,6.383-2.101,5.668,1.383l-19.268,93.911     L460.007,1012.57z"
   id="path13" />
			<path
   style="fill:#AFD9DD;"
   d="M490.729,1021.439c0.103-0.075,0.182-0.171,0.245-0.296c1.382-2.755,17.226-36.184-5.591-77.835     c-23.825-43.492-52.402-69.999-75.443-83.659c-23.041-13.66-45.311-18.414-41.045-15.338c4.266,3.076,44.222,21.93,42.209,21.322     c-2.012-0.607-47.824-7.996-43.18-4.984c4.645,3.011,30.395,4.792,42.498,14.614c12.103,9.822,14.175,10.895,14.175,10.895     s-20.091-11.786-27.398-11.488c-3.433,0.14-8.532-0.065-12.974-0.321c-0.925-0.053-1.09,1.571-0.189,1.848     c5.921,1.821,13.616,4.547,19.41,7.869c6.017,3.45,15.05,10.033,21.912,15.219c0.806,0.609,0.208,2.105-0.667,1.665     c-4.665-2.346-10.152-4.716-14.757-5.627c-2.905-0.575-5.466-1.095-7.646-1.546c-0.921-0.19-1.242,1.411-0.362,1.807     c11.124,5,30.25,13.932,36.813,19.073c1.709,1.338,3.372,2.624,4.95,3.831c0.814,0.623,0.182,2.126-0.694,1.649     c-11.024-6.006-26.322-13.344-35.453-13.465c-15.493-0.205-15.493-0.205-15.493-0.205s11.795-0.59,28.614,9.377     c8.924,5.289,17.087,11.377,22.784,15.927c0.802,0.641,0.148,2.124-0.72,1.634c-7.723-4.354-18.433-9.9-23.37-10.203     l-3.882-0.239c-0.85-0.052-1.104,1.377-0.32,1.797c9.064,4.846,31.493,17.738,45.053,33.315l11.28,12.958     c0.684,0.785-0.125,2.086-0.916,1.472c-6.008-4.66-14.045-10.744-16.074-11.551c-3.344-1.331-3.344-1.331-3.344-1.331     s11.319,8.23,21.128,20.497c4.577,5.724,7.275,9.458,8.851,11.813c0.544,0.813-0.211,1.927-0.954,1.404     c-5.386-3.789-16.005-11.234-16.907-11.676c-1.212-0.595-1.212-0.595-1.212-0.595s13.672,11.456,13.445,23.862     c-0.226,12.406-3.726,19.663,2.661,20.474C483.979,1026.14,489.734,1022.164,490.729,1021.439z"
   id="path15" />
			<path
   style="fill:#AFD9DD;"
   d="M470.942,1006.96c0.078-0.164,0.186-0.296,0.333-0.408c3.232-2.471,42.588-31.081,97.978-3.617     c57.839,28.677,95.188,67,115.677,99.079s29.748,64.378,25.272,58.522c-4.476-5.856-33.973-62.224-32.915-59.333     c1.058,2.891,17.12,69.698,12.669,63.271s-10.519-44.341-24.585-60.786c-14.066-16.445-15.714-19.355-15.714-19.355     s17.71,27.991,18.429,38.874c0.338,5.112,1.355,12.642,2.339,19.19c0.205,1.363-1.798,1.857-2.279,0.562     c-3.157-8.502-7.709-19.497-12.72-27.58c-5.204-8.395-14.769-20.784-22.267-30.167c-0.881-1.102-2.658,0.013-1.978,1.243     c3.624,6.559,7.402,14.334,9.226,21.022c1.151,4.22,2.183,7.938,3.071,11.102c0.375,1.336-1.576,2.057-2.201,0.814     c-7.901-15.732-21.905-42.728-29.301-51.674c-1.926-2.329-3.778-4.599-5.521-6.755c-0.899-1.112-2.681,0.056-1.955,1.281     c9.142,15.429,20.585,36.993,22.099,50.515c2.569,22.944,2.569,22.944,2.569,22.944s-1.025-17.582-15.976-40.998     c-7.933-12.425-16.75-23.598-23.28-31.35c-0.919-1.091-2.673,0.105-1.932,1.317c6.587,10.787,15.108,25.821,16.224,33.096     l0.878,5.72c0.192,1.252-1.554,1.849-2.195,0.749c-7.402-12.7-26.841-43.989-48.307-61.715l-17.857-14.746     c-1.082-0.894-2.584,0.504-1.701,1.583c6.713,8.197,15.506,19.185,16.817,22.07c2.16,4.755,2.16,4.755,2.16,4.755     s-11.962-15.526-28.736-28.196c-7.827-5.912-12.89-9.342-16.064-11.319c-1.096-0.683-2.374,0.608-1.61,1.63     c5.533,7.408,16.411,22.017,17.097,23.286c0.923,1.706,0.923,1.706,0.923,1.706s-16.34-18.521-31.789-16.288     c-15.449,2.233-23.985,8.534-25.95-0.813C466.083,1017.689,470.185,1008.545,470.942,1006.96z"
   id="path17" />
			<path
   style="fill:#D3ECF0;"
   d="M478.711,1057.042c-10.516,19.424-40.088,83.574-81.4,250.996     c-14.051,56.925-27.047,124.549-38.572,193.245h-25.164c11.74-70.349,25.026-139.81,39.43-198.158     c41.542-168.326,71.374-233.991,83.298-255.802c2.786-5.082,10.179-6.781,15.735-3.612l2.663,1.515     C479.262,1047.827,480.961,1052.863,478.711,1057.042z"
   id="path19" />
			<path
   style="fill:#D3ECF0;"
   d="M482.718,1015.527c0.109-0.154,0.173-0.321,0.201-0.519c0.609-4.343,6.7-56.542-45.755-98.411     c-54.773-43.719-107.989-62.711-147.143-67.972c-39.154-5.26-72.889,0.668-65.373,2.354c7.516,1.687,73.062,4.508,69.927,4.812     c-3.134,0.304-71.365,15.616-63.347,17.012c8.018,1.396,45.216-10.302,67.07-4.089c21.854,6.214,25.301,6.483,25.301,6.483     s-34.08-4.424-44.246-0.057c-4.775,2.052-12.069,4.561-18.461,6.644c-1.331,0.434-0.773,2.641,0.633,2.512     c9.24-0.85,21.424-1.486,31.214-0.31c10.168,1.221,26.115,4.883,38.321,7.908c1.434,0.355,1.317,2.63-0.13,2.533     c-7.723-0.518-16.618-0.62-23.557,0.7c-4.378,0.833-8.244,1.549-11.54,2.148c-1.392,0.253-1.065,2.516,0.368,2.552     c18.128,0.461,49.458,1.69,61.219,4.818c3.062,0.814,6.034,1.584,8.848,2.299c1.452,0.369,1.291,2.672-0.176,2.527     c-18.476-1.827-43.63-3.063-56.572,1.751c-21.959,8.168-21.959,8.168-21.959,8.168s16.355-7.191,44.934-3.356     c15.164,2.035,29.642,5.526,39.894,8.356c1.443,0.398,1.242,2.687-0.22,2.522c-13.015-1.47-30.824-2.868-37.937-0.576     l-5.593,1.802c-1.224,0.394-0.889,2.396,0.423,2.516c15.146,1.382,53.063,5.975,79.774,18.895l22.22,10.748     c1.347,0.651,0.839,2.786-0.576,2.417c-10.744-2.803-25.043-6.357-28.299-6.305c-5.365,0.086-5.365,0.086-5.365,0.086     s19.974,4.565,39.781,15.214c9.242,4.969,14.866,8.367,18.235,10.578c1.164,0.764,0.64,2.627-0.663,2.35     c-9.442-2.006-28.048-5.929-29.534-6.015c-1.999-0.115-1.999-0.115-1.999-0.115s24.863,7.49,30.579,23.783     c5.716,16.293,4.309,27.659,13.715,25.238C475.481,1025.329,481.668,1017.014,482.718,1015.527z"
   id="path21" />
			<path
   style="fill:#AFD9DD;"
   d="M486.912,1022.055c0.045-0.168,0.05-0.327,0.015-0.495c-0.77-3.679-11.058-47.372-67.067-57.781     c-58.484-10.869-108.395-2.951-142.553,9.732c-34.158,12.683-60.51,31.842-53.754,29.94c6.756-1.902,62.177-27.843,59.656-26.257     c-2.521,1.586-54.842,42.95-47.754,40.603c7.089-2.346,34.627-27.534,54.657-32.034c20.03-4.5,22.98-5.769,22.98-5.769     s-29.686,11.161-36.868,18.965c-3.374,3.666-8.71,8.774-13.42,13.16c-0.981,0.913,0.133,2.411,1.267,1.705     c7.445-4.639,17.406-10.374,25.906-13.655c8.828-3.407,23.188-7.378,34.243-10.242c1.299-0.337,1.871,1.503,0.637,2.049     c-6.585,2.911-14.023,6.652-19.414,10.672c-3.401,2.536-6.411,4.761-8.979,6.648c-1.085,0.797-0.147,2.437,1.057,1.85     c15.234-7.426,41.689-19.919,52.405-22.511c2.79-0.675,5.491-1.346,8.046-1.993c1.318-0.334,1.862,1.548,0.597,2.065     c-15.925,6.501-37.239,16.335-46.601,25.684c-15.885,15.862-15.885,15.862-15.885,15.862s11.506-12.685,36.436-21.946     c13.228-4.914,26.314-8.387,35.685-10.565c1.319-0.307,1.826,1.581,0.559,2.079c-11.272,4.435-26.516,10.987-31.766,15.847     l-4.128,3.821c-0.903,0.836-0.035,2.267,1.093,1.798c13.022-5.42,45.953-18.097,72.001-19.406l21.669-1.089     c1.313-0.066,1.519,1.832,0.232,2.149c-9.773,2.41-22.729,5.757-25.425,7.197c-4.444,2.373-4.444,2.373-4.444,2.373     s17.979-4.989,37.609-5.12c9.16-0.061,14.843,0.197,18.3,0.489c1.194,0.101,1.306,1.792,0.139,2.134     c-8.454,2.478-25.105,7.385-26.368,7.956c-1.699,0.768-1.699,0.768-1.699,0.768s22.911-4.789,32.467,5.577     c9.556,10.365,11.728,19.914,18.849,13.968C483.769,1032.878,486.475,1023.676,486.912,1022.055z"
   id="path23" />
			
				<ellipse
   transform="matrix(0.9941 -0.1084 0.1084 0.9941 -108.8829 55.6071)"
   style="fill:#AFD9DD;"
   cx="457.007"
   cy="1029.258"
   rx="27.454"
   ry="26.412"
   id="ellipse25" />
			
				<ellipse
   transform="matrix(0.9941 -0.1084 0.1084 0.9941 -113.2764 60.4644)"
   style="fill:#AFD9DD;"
   cx="499.316"
   cy="1071.778"
   rx="37.798"
   ry="36.364"
   id="ellipse27" />
			
				<ellipse
   transform="matrix(0.9941 -0.1085 0.1085 0.9941 -108.1119 60.1994)"
   style="fill:#D3ECF0;"
   cx="499.164"
   cy="1023.625"
   rx="23.123"
   ry="22.246"
   id="ellipse29" />
		</g>
		<g
   id="g53">
			<path
   style="fill:#D3ECF0;"
   d="M2091.229,716.858c0.052-0.26,0.038-0.513-0.044-0.784c-1.798-5.971-25.054-77.054-119.897-102.44     c-99.034-26.508-181.149-21.795-236.334-7.023c-55.185,14.773-96.448,41.072-85.449,39.114     c10.999-1.958,99.787-34.452,95.804-32.328s-85.447,59.625-73.955,57.014c11.492-2.611,53.892-38.307,86.662-42.301     c32.77-3.994,37.511-5.544,37.511-5.544s-47.94,13.059-58.825,24.332c-5.113,5.296-13.297,12.574-20.539,18.803     c-1.508,1.297,0.558,3.854,2.35,2.91c11.767-6.199,27.574-13.745,41.288-17.62c14.243-4.024,37.633-8.07,55.667-10.878     c2.119-0.33,3.33,2.685,1.348,3.358c-10.573,3.589-22.453,8.362-30.881,13.903c-5.318,3.495-10.025,6.557-14.044,9.151     c-1.697,1.096,0.095,3.852,2.022,3.108c24.364-9.402,66.731-25.088,84.237-27.517c4.557-0.633,8.968-1.273,13.137-1.898     c2.151-0.323,3.32,2.755,1.283,3.376c-25.646,7.821-59.812,20.093-74.117,33.477c-24.272,22.709-24.272,22.709-24.272,22.709     s17.413-18.351,57.689-29.139c21.37-5.724,42.705-9.181,58.026-11.164c2.157-0.279,3.265,2.801,1.222,3.394     c-18.176,5.271-42.679,13.282-50.754,20.179l-6.349,5.424c-1.39,1.187,0.259,3.599,2.073,3.031     c20.955-6.562,74.094-21.518,117.345-19.488l35.979,1.689c2.181,0.102,2.788,3.152,0.687,3.454     c-15.959,2.289-37.094,5.566-41.388,7.429c-7.078,3.071-7.078,3.071-7.078,3.071s29.282-5.095,61.995-2.205     c15.264,1.348,24.777,2.655,30.582,3.666c2.005,0.349,2.428,3.055,0.53,3.415c-13.751,2.606-40.828,7.779-42.855,8.488     c-2.726,0.953-2.726,0.953-2.726,0.953s37.534-3.997,54.915,13.989s22.336,33.508,33.38,25.179     C2087.5,733.567,2090.727,719.366,2091.229,716.858z"
   id="path33" />
			<path
   style="fill:#AFD9DD;"
   d="M2079.543,706.102l-26.096-92.178c-0.99-3.496-6.207-2.356-5.647,1.234l15.07,96.764     L2079.543,706.102z"
   id="path35" />
			<path
   style="fill:#AFD9DD;"
   d="M2071.787,677.616c-0.035-0.135-0.041-0.272-0.017-0.426c0.521-3.371,7.558-43.672,48.839-65.748     c43.105-23.052,80.117-27.808,105.542-24.763c25.425,3.046,45.163,13.528,40.142,13.452c-5.021-0.076-46.343-9.671-44.458-8.882     c1.885,0.789,41.117,24.484,35.844,24.1c-5.273-0.384-25.966-15.82-40.837-15.058c-14.871,0.762-17.068,0.349-17.068,0.349     s22.098,2.767,27.511,7.865c2.542,2.394,6.555,5.583,10.096,8.29c0.737,0.564-0.067,2.122-0.914,1.774     c-5.566-2.29-13.007-4.945-19.335-5.811c-6.572-0.9-17.243-0.999-25.456-0.909c-0.965,0.011-1.364,1.74-0.444,1.926     c4.907,0.991,10.457,2.505,14.496,4.736c2.549,1.408,4.803,2.637,6.727,3.675c0.813,0.439,0.141,2.08-0.758,1.851     c-11.362-2.894-31.089-7.569-39.047-7.322c-2.072,0.064-4.078,0.112-5.976,0.146c-0.979,0.018-1.357,1.777-0.414,1.93     c11.862,1.93,27.751,5.497,34.797,11.426c11.954,10.06,11.954,10.06,11.954,10.06s-8.674-8.324-27.231-10.551     c-9.846-1.182-19.569-1.146-26.527-0.853c-0.979,0.041-1.329,1.797-0.386,1.934c8.394,1.221,19.752,3.354,23.698,6.348     l3.103,2.354c0.679,0.515,0.055,1.959-0.785,1.814c-9.7-1.669-34.218-4.995-53.498-0.063l-16.038,4.103     c-0.972,0.249-1.099,1.943-0.143,1.919c7.259-0.186,16.883-0.3,18.895,0.321c3.317,1.023,3.317,1.023,3.317,1.023     s-13.36-0.14-27.878,4.319c-6.774,2.081-10.974,3.628-13.526,4.687c-0.882,0.366-0.942,1.859-0.075,1.884     c6.284,0.181,18.661,0.559,19.603,0.76c1.266,0.271,1.266,0.271,1.266,0.271s-17.005,1.183-23.936,12.401     c-6.931,11.218-8.412,20.007-13.756,16.508C2074.252,686.273,2072.131,678.921,2071.787,677.616z"
   id="path37" />
			<path
   style="fill:#AFD9DD;"
   d="M2068.995,700.007c-0.071-0.171-0.171-0.309-0.311-0.428c-3.084-2.633-40.697-33.187-96.47-6.847     c-58.238,27.504-96.676,65.54-118.224,97.726c-21.548,32.185-32.031,64.955-27.372,59.103     c4.659-5.852,36.108-62.615,34.943-59.689s-19.801,70.807-15.142,64.37c4.659-6.437,12.23-45.059,26.79-61.444     c14.56-16.385,16.307-19.311,16.307-19.311s-18.636,28.089-19.801,39.207c-0.547,5.223-1.865,12.899-3.11,19.572     c-0.259,1.389,1.696,1.959,2.224,0.649c3.469-8.603,8.418-19.714,13.698-27.828c5.484-8.427,15.435-20.804,23.221-30.17     c0.915-1.101,2.62,0.099,1.899,1.336c-3.849,6.599-7.899,14.437-9.978,21.227c-1.312,4.284-2.485,8.057-3.494,11.268     c-0.426,1.356,1.468,2.157,2.136,0.904c8.45-15.853,23.391-43.042,31.059-51.964c1.996-2.323,3.918-4.587,5.727-6.738     c0.933-1.11,2.641,0.143,1.874,1.374c-9.661,15.503-21.849,37.213-23.908,51.008c-3.494,23.407-3.494,23.407-3.494,23.407     s1.747-17.968,17.472-41.461c8.343-12.466,17.506-23.622,24.27-31.349c0.952-1.088,2.631,0.193,1.85,1.411     c-6.948,10.832-15.98,25.951-17.385,33.363l-1.105,5.828c-0.242,1.276,1.455,1.943,2.133,0.837     c7.831-12.765,28.311-44.174,50.221-61.634l18.227-14.524c1.105-0.88,2.527,0.599,1.611,1.675     c-6.964,8.176-16.095,19.144-17.508,22.055c-2.329,4.799-2.329,4.799-2.329,4.799s12.446-15.512,29.519-27.945     c7.966-5.801,13.103-9.151,16.316-11.073c1.11-0.664,2.315,0.698,1.519,1.721c-5.766,7.406-17.105,22.014-17.835,23.291     c-0.982,1.717-0.982,1.717-0.982,1.717s16.889-18.438,32.031-15.656c15.142,2.782,23.295,9.507,25.625,0     C2073.337,711.148,2069.675,701.655,2068.995,700.007z"
   id="path39" />
			<path
   style="fill:#D3ECF0;"
   d="M2155.69,1623.109c6.71,0.097,12.242-4.194,12.335-9.578     c1.074-61.627,5.549-400.286-21.03-609.751c-22.799-179.68-46.784-251.383-56.975-275.435     c-2.369-5.591-10.322-8.232-16.906-5.591l-3.145,1.262c-5.408,2.17-7.99,7.195-6.066,11.794     c8.959,21.417,32.856,91.506,55.532,270.22c26.434,208.323,21.961,545.879,20.892,607.178c-0.094,5.355,5.227,9.755,11.901,9.851     L2155.69,1623.109z"
   id="path41" />
			<path
   style="fill:#D3ECF0;"
   d="M2081.292,677.637c0.005-0.209,0.052-0.401,0.143-0.596c2.021-4.278,27.257-54.877,91.308-57.552     c66.881-2.793,118.414,15.444,151.341,36.637c32.927,21.193,55.306,48.785,48.598,45.321     c-6.708-3.464-58.402-44.281-56.181-41.938c2.221,2.344,45.583,61.114,38.658,57.059c-6.925-4.055-28.647-39.085-48.902-47.99     c-20.255-8.905-23.042-10.943-23.042-10.943s28.571,18.585,33.837,29.202c2.474,4.987,6.609,12.048,10.3,18.133     c0.768,1.267-0.921,2.868-1.922,1.822c-6.573-6.867-15.517-15.49-23.67-20.913c-8.468-5.632-22.749-12.909-33.806-18.28     c-1.299-0.631-2.512,1.476-1.351,2.346c6.197,4.644,13.051,10.434,17.598,16.199c2.868,3.637,5.412,6.832,7.587,9.545     c0.918,1.146-0.627,2.949-1.742,2.034c-14.114-11.574-38.755-31.19-49.531-36.175c-2.805-1.298-5.517-2.576-8.076-3.799     c-1.32-0.631-2.517,1.531-1.313,2.372c15.162,10.585,35.088,26.113,42.219,38.964c12.1,21.805,12.1,21.805,12.1,21.805     s-8.378-17.228-32.409-32.701c-12.75-8.21-25.812-14.667-35.265-18.92c-1.331-0.599-2.488,1.576-1.276,2.396     c10.785,7.293,25.192,17.82,29.314,24.568l3.241,5.306c0.709,1.161-0.693,2.725-1.764,1.965     c-12.364-8.781-43.962-29.752-71.768-35.883l-23.131-5.101c-1.402-0.309-2.236,1.932-0.944,2.537     c9.814,4.602,22.774,10.885,25.231,13.084c4.05,3.624,4.05,3.624,4.05,3.624s-17.875-9.133-39.105-12.727     c-9.906-1.677-16.148-2.363-19.989-2.618c-1.327-0.088-1.993,1.92-0.839,2.535c8.363,4.453,24.824,13.254,26.009,14.16     c1.594,1.219,1.594,1.219,1.594,1.219s-23.284-9.755-36.981,1.002c-13.697,10.758-19.129,21.828-24.929,13.45     C2081.208,691.167,2081.242,679.658,2081.292,677.637z"
   id="path43" />
			<path
   style="fill:#D3ECF0;"
   d="M2074.35,680.689c0.062-0.18,0.149-0.325,0.272-0.451c2.695-2.773,35.574-34.954,84.326-7.212     c50.907,28.968,84.505,69.031,103.341,102.93s27.999,68.414,23.926,62.251c-4.073-6.163-31.562-65.949-30.544-62.867     c1.018,3.082,17.308,74.578,13.236,67.798s-10.69-47.459-23.417-64.716c-12.727-17.258-14.254-20.339-14.254-20.339     s16.29,29.585,17.308,41.295c0.478,5.501,1.631,13.586,2.718,20.614c0.226,1.463-1.482,2.063-1.944,0.683     c-3.032-9.061-7.358-20.763-11.974-29.31c-4.793-8.876-13.491-21.912-20.298-31.777c-0.8-1.159-2.291,0.104-1.66,1.407     c3.364,6.95,6.905,15.206,8.722,22.357c1.147,4.512,2.172,8.486,3.054,11.868c0.372,1.428-1.283,2.272-1.867,0.952     c-7.387-16.697-20.446-45.334-27.149-54.731c-1.745-2.446-3.425-4.831-5.006-7.097c-0.816-1.169-2.309,0.151-1.638,1.447     c8.445,16.329,19.098,39.194,20.898,53.725c3.054,24.654,3.054,24.654,3.054,24.654s-1.527-18.924-15.272-43.669     c-7.293-13.13-15.302-24.88-21.215-33.019c-0.832-1.146-2.3,0.203-1.617,1.486c6.073,11.409,13.968,27.333,15.196,35.14     l0.966,6.138c0.211,1.344-1.272,2.046-1.865,0.882c-6.845-13.445-24.747-46.527-43.899-64.916l-15.932-15.297     c-0.966-0.927-2.209,0.631-1.408,1.764c6.087,8.612,14.069,20.163,15.304,23.23c2.036,5.055,2.036,5.055,2.036,5.055     s-10.88-16.338-25.803-29.433c-6.963-6.11-11.453-9.638-14.262-11.663c-0.97-0.699-2.024,0.735-1.328,1.812     c5.04,7.801,14.952,23.187,15.59,24.531c0.858,1.809,0.858,1.809,0.858,1.809s-14.763-19.42-27.999-16.49     c-13.236,2.93-20.363,10.013-22.399,0C2070.554,692.423,2073.756,682.424,2074.35,680.689z"
   id="path45" />
			
				<ellipse
   transform="matrix(0.7071 -0.7071 0.7071 0.7071 98.308 1683.9022)"
   style="fill:#AFD9DD;"
   cx="2081.804"
   cy="723.283"
   rx="27.075"
   ry="27.075"
   id="ellipse47" />
			<circle
   style="fill:#AFD9DD;"
   cx="2038.3"
   cy="765.457"
   r="37.277"
   id="circle49" />
			
				<ellipse
   transform="matrix(0.3827 -0.9239 0.9239 0.3827 597.964 2327.2441)"
   style="fill:#D3ECF0;"
   cx="2040.466"
   cy="716.164"
   rx="22.804"
   ry="22.804"
   id="ellipse51" />
		</g>
		<g
   id="g75">
			<path
   style="fill:#D3ECF0;"
   d="M375.595,657.95c-0.047-0.284-0.019-0.558,0.086-0.849c2.301-6.416,31.775-82.731,139.792-106.93     c112.791-25.269,205.082-17.255,266.571,0.724c61.489,17.979,106.764,47.974,94.463,45.462     c-12.301-2.513-110.83-40.909-106.441-38.464c4.388,2.445,93.516,67.719,80.689,64.48c-12.826-3.239-58.949-43.472-95.683-48.963     c-36.734-5.491-42.003-7.341-42.003-7.341s53.407,15.864,65.149,28.481c5.516,5.927,14.401,14.114,22.273,21.13     c1.639,1.461-0.807,4.162-2.781,3.074c-12.97-7.143-30.431-15.889-45.703-20.578c-15.861-4.869-42.024-10.085-62.211-13.77     c-2.372-0.433-3.875,2.797-1.673,3.597c11.746,4.267,24.909,9.867,34.149,16.177c5.829,3.981,10.991,7.469,15.4,10.427     c1.861,1.249-0.285,4.176-2.421,3.302c-27.014-11.063-74.022-29.58-93.631-32.835c-5.105-0.847-10.045-1.698-14.713-2.524     c-2.408-0.426-3.868,2.873-1.601,3.619c28.532,9.393,66.457,23.916,81.956,38.944c26.298,25.5,26.298,25.5,26.298,25.5     s-18.772-20.528-63.649-33.657c-23.811-6.966-47.688-11.47-64.857-14.164c-2.417-0.379-3.807,2.924-1.533,3.64     c20.234,6.362,47.47,15.92,56.249,23.69l6.903,6.11c1.511,1.337-0.457,3.896-2.475,3.216     c-23.306-7.861-82.482-25.967-131.301-25.291l-40.611,0.562c-2.462,0.034-3.286,3.322-0.933,3.724     c17.874,3.048,41.533,7.349,46.284,9.523c7.832,3.582,7.832,3.582,7.832,3.582s-32.753-6.562-69.74-4.582     c-17.259,0.924-28.035,2.006-34.622,2.898c-2.275,0.308-2.876,3.229-0.754,3.687c15.371,3.313,45.638,9.883,47.888,10.724     c3.027,1.13,3.027,1.13,3.027,1.13s-42.101-5.663-62.51,13.241c-20.409,18.904-26.707,35.573-38.765,26.145     C379.027,676.214,376.045,660.69,375.595,657.95z"
   id="path55" />
			<path
   style="fill:#AFD9DD;"
   d="M389.255,646.691l33.645-99.106c1.276-3.759,7.101-2.337,6.306,1.539L407.77,653.595     L389.255,646.691z"
   id="path57" />
			<path
   style="fill:#AFD9DD;"
   d="M423.431,656.557c0.115-0.084,0.202-0.19,0.272-0.329c1.537-3.064,19.163-40.253-6.219-86.588     c-26.504-48.383-58.294-77.871-83.927-93.067c-25.632-15.196-50.407-20.485-45.661-17.063     c4.746,3.422,49.195,24.396,46.956,23.72c-2.238-0.676-53.202-8.895-48.035-5.545c5.167,3.35,33.813,5.331,47.277,16.257     c13.464,10.927,15.769,12.12,15.769,12.12s-22.35-13.111-30.48-12.78c-3.819,0.156-9.491-0.072-14.432-0.358     c-1.029-0.059-1.213,1.748-0.21,2.056c6.587,2.026,15.148,5.059,21.592,8.754c6.693,3.838,16.743,11.161,24.377,16.931     c0.897,0.678,0.232,2.341-0.741,1.852c-5.19-2.609-11.294-5.246-16.416-6.259c-3.232-0.639-6.08-1.218-8.506-1.72     c-1.024-0.212-1.381,1.57-0.403,2.01c12.376,5.562,33.652,15.499,40.953,21.218c1.901,1.489,3.751,2.919,5.507,4.262     c0.906,0.693,0.202,2.365-0.772,1.835c-12.264-6.682-29.282-14.845-39.44-14.979c-17.235-0.228-17.235-0.228-17.235-0.228     s13.122-0.656,31.832,10.432c9.927,5.883,19.008,12.656,25.346,17.718c0.892,0.712,0.165,2.362-0.801,1.818     c-8.592-4.844-20.506-11.013-25.998-11.351l-4.319-0.266c-0.945-0.058-1.229,1.532-0.355,1.999     c10.083,5.391,35.034,19.733,50.12,37.061l12.549,14.415c0.761,0.874-0.139,2.32-1.019,1.638     c-6.684-5.184-15.625-11.952-17.882-12.85c-3.72-1.48-3.72-1.48-3.72-1.48s12.592,9.156,23.504,22.802     c5.092,6.367,8.093,10.521,9.847,13.141c0.606,0.905-0.235,2.144-1.062,1.562c-5.992-4.215-17.806-12.497-18.808-12.989     c-1.348-0.661-1.348-0.661-1.348-0.661s15.209,12.745,14.958,26.545c-0.251,13.801-4.145,21.875,2.96,22.776     C415.922,661.787,422.325,657.365,423.431,656.557z"
   id="path59" />
			<path
   style="fill:#AFD9DD;"
   d="M401.419,640.45c0.087-0.183,0.207-0.329,0.37-0.454c3.595-2.748,47.377-34.576,108.997-4.024     c64.343,31.902,105.893,74.535,128.686,110.221c22.793,35.687,33.093,71.617,28.114,65.103     c-4.979-6.515-37.794-69.221-36.616-66.005c1.177,3.216,19.046,77.536,14.093,70.386c-4.952-7.15-11.702-49.328-27.35-67.622     c-15.648-18.294-17.481-21.531-17.481-21.531s19.701,31.139,20.501,43.245c0.376,5.687,1.507,14.064,2.602,21.348     c0.228,1.516-2,2.065-2.535,0.626c-3.512-9.458-8.576-21.689-14.15-30.681c-5.79-9.339-16.43-23.121-24.771-33.559     c-0.98-1.227-2.957,0.015-2.201,1.383c4.032,7.297,8.234,15.945,10.263,23.387c1.28,4.695,2.428,8.831,3.417,12.351     c0.417,1.486-1.753,2.289-2.448,0.905c-8.79-17.501-24.368-47.533-32.596-57.485c-2.142-2.591-4.203-5.116-6.142-7.514     c-1-1.237-2.982,0.062-2.175,1.425c10.17,17.164,22.9,41.153,24.584,56.196c2.858,25.524,2.858,25.524,2.858,25.524     s-1.141-19.559-17.773-45.609c-8.825-13.822-18.634-26.252-25.898-34.876c-1.023-1.214-2.973,0.117-2.15,1.466     c7.328,12,16.807,28.725,18.048,36.818l0.976,6.364c0.214,1.393-1.729,2.057-2.442,0.833     c-8.234-14.129-29.859-48.936-53.739-68.656l-19.865-16.404c-1.204-0.994-2.875,0.561-1.892,1.761     c7.468,9.118,17.25,21.342,18.708,24.552c2.403,5.29,2.403,5.29,2.403,5.29s-13.307-17.272-31.967-31.367     c-8.707-6.576-14.34-10.392-17.871-12.592c-1.22-0.76-2.641,0.676-1.791,1.813c6.155,8.24,18.256,24.493,19.02,25.904     c1.027,1.898,1.027,1.898,1.027,1.898s-18.177-20.604-35.364-18.12c-17.187,2.484-26.682,9.494-28.868-0.905     C396.014,652.386,400.577,642.214,401.419,640.45z"
   id="path61" />
			<path
   style="fill:#D3ECF0;"
   d="M202.524,1623.158c-6.668-0.65-11.59-5.801-10.976-11.499     c7.027-65.219,47.058-423.457,100.921-641.744c46.204-187.248,79.406-260.303,92.672-284.569     c3.084-5.641,11.318-7.539,17.501-4.012l2.953,1.685c5.079,2.898,6.979,8.496,4.467,13.138     c-11.698,21.62-44.6,92.98-90.556,279.221c-53.57,217.097-93.458,574.17-100.446,639.042c-0.61,5.667-6.464,9.719-13.096,9.072     L202.524,1623.158z"
   id="path63" />
			<path
   style="fill:#D3ECF0;"
   d="M414.52,649.981c0.121-0.171,0.193-0.357,0.224-0.577c0.678-4.831,7.454-62.901-50.901-109.478     c-60.933-48.635-120.133-69.764-163.69-75.616c-43.557-5.852-81.085,0.743-72.725,2.619c8.361,1.876,81.278,5.015,77.791,5.353     c-3.487,0.338-79.391,17.372-70.471,18.925c8.92,1.553,50.301-11.461,74.613-4.549s28.146,7.212,28.146,7.212     s-37.913-4.921-49.221-0.063c-5.312,2.282-13.426,5.073-20.537,7.391c-1.48,0.483-0.861,2.938,0.704,2.794     c10.279-0.945,23.833-1.653,34.724-0.345c11.311,1.359,29.052,5.433,42.63,8.797c1.595,0.395,1.466,2.926-0.145,2.818     c-8.592-0.576-18.487-0.689-26.207,0.779c-4.871,0.926-9.172,1.723-12.838,2.389c-1.548,0.281-1.185,2.799,0.409,2.839     c20.167,0.512,55.02,1.881,68.103,5.36c3.406,0.906,6.712,1.762,9.843,2.557c1.615,0.41,1.436,2.973-0.196,2.812     c-20.554-2.032-48.536-3.407-62.934,1.948c-24.428,9.086-24.428,9.086-24.428,9.086s18.194-7.999,49.987-3.733     c16.869,2.264,32.976,6.148,44.38,9.296c1.605,0.443,1.382,2.99-0.245,2.806c-14.479-1.636-34.291-3.19-42.204-0.64l-6.222,2.005     c-1.362,0.439-0.988,2.666,0.471,2.799c16.85,1.537,59.031,6.646,88.745,21.02l24.719,11.957c1.498,0.725,0.933,3.1-0.64,2.689     c-11.952-3.119-27.86-7.072-31.481-7.014c-5.969,0.096-5.969,0.096-5.969,0.096s22.22,5.079,44.255,16.924     c10.282,5.527,16.538,9.308,20.286,11.768c1.295,0.85,0.712,2.922-0.738,2.614c-10.504-2.231-31.202-6.596-32.856-6.691     c-2.224-0.128-2.224-0.128-2.224-0.128s27.659,8.332,34.018,26.458c6.359,18.126,4.793,30.769,15.257,28.076     C406.47,660.885,413.352,651.635,414.52,649.981z"
   id="path65" />
			<path
   style="fill:#AFD9DD;"
   d="M419.185,657.243c0.05-0.187,0.056-0.364,0.017-0.55c-0.857-4.093-12.302-52.699-74.61-64.279     c-65.061-12.092-120.584-3.283-158.584,10.827c-38,14.109-67.315,35.422-59.799,33.306c7.516-2.116,69.169-30.974,66.365-29.21     c-2.805,1.764-61.01,47.78-53.124,45.17c7.886-2.61,38.521-30.63,60.804-35.636c22.283-5.006,25.564-6.417,25.564-6.417     s-33.025,12.416-41.014,21.098c-3.753,4.078-9.689,9.761-14.93,14.64c-1.091,1.016,0.148,2.682,1.409,1.896     c8.283-5.16,19.363-11.541,28.819-15.19c9.82-3.79,25.795-8.207,38.094-11.394c1.445-0.374,2.082,1.673,0.708,2.28     c-7.325,3.238-15.6,7.4-21.598,11.872c-3.784,2.821-7.132,5.296-9.989,7.395c-1.207,0.887-0.163,2.712,1.176,2.058     c16.947-8.261,46.378-22.159,58.298-25.042c3.103-0.751,6.109-1.497,8.951-2.217c1.466-0.371,2.071,1.723,0.664,2.297     c-17.716,7.232-41.427,18.172-51.842,28.572c-17.671,17.645-17.671,17.645-17.671,17.645s12.8-14.112,40.534-24.414     c14.716-5.466,29.274-9.33,39.698-11.753c1.467-0.341,2.031,1.759,0.621,2.313c-12.54,4.933-29.498,12.222-35.338,17.628     l-4.592,4.251c-1.005,0.93-0.039,2.522,1.216,2c14.486-6.03,51.12-20.132,80.098-21.588l24.106-1.211     c1.461-0.073,1.689,2.038,0.258,2.391c-10.872,2.681-25.284,6.404-28.284,8.006c-4.943,2.64-4.943,2.64-4.943,2.64     s20.001-5.55,41.839-5.696c10.19-0.068,16.512,0.219,20.358,0.544c1.328,0.112,1.453,1.993,0.155,2.374     c-9.405,2.757-27.928,8.216-29.333,8.851c-1.89,0.854-1.89,0.854-1.89,0.854s25.488-5.327,36.118,6.204     c10.63,11.531,13.047,22.153,20.969,15.538C415.689,669.282,418.699,659.046,419.185,657.243z"
   id="path67" />
			
				<ellipse
   transform="matrix(0.9941 -0.1085 0.1085 0.9941 -69.8888 45.7897)"
   style="fill:#AFD9DD;"
   cx="385.917"
   cy="665.255"
   rx="30.541"
   ry="29.382"
   id="ellipse69" />
			
				<ellipse
   transform="matrix(0.9941 -0.1084 0.1084 0.9941 -74.7097 51.1497)"
   style="fill:#AFD9DD;"
   cx="432.984"
   cy="712.557"
   rx="42.049"
   ry="40.454"
   id="ellipse71" />
			
				<ellipse
   transform="matrix(0.9941 -0.1084 0.1084 0.9941 -68.8988 50.8125)"
   style="fill:#D3ECF0;"
   cx="432.815"
   cy="658.99"
   rx="25.723"
   ry="24.748"
   id="ellipse73" />
		</g>
		<g
   id="g103">
			<path
   style="fill:#1C2147;"
   d="M1893.518,1016.213c0,0-8.359,6.908-7.904,14.27c0.456,7.361-16.27-11.175-18.083,7.91     c-1.814,19.085,2.912,17.994-3.448,28.173c-6.36,10.18-2.177,22.902,10.729,24.899c12.905,1.997,16.266-5.002,18.087,8.266     c1.82,13.268,23.175,3.358,29.172-3.005c5.997-6.363,14.995,0.27,20.902-1.095c5.907-1.364,11.897-40.08,19.349-45.534     c7.451-5.454,9.631-12.18,1.358-26.446C1955.406,1009.385,1912.417,995.671,1893.518,1016.213z"
   id="path77" />
			<path
   style="fill:#6B182C;"
   d="M2112.668,1390.783c0,0-16.108,87.951-10.672,121.389c5.526,33.986,0.518,40.712-6.716,51.44     c-7.234,10.727-15.589,31.039,3.299,37.986c18.888,6.947,26.674,0.529,43.89,12.752s42.786,4.135,54.457,3.608     c11.67-0.527,18.905-11.254,8.904-12.969c-10.001-1.715-21.109-9.014-22.215-14.598s-3.856-36.228-6.615-57.771     c-2.759-21.543-5.981-141.438-22.079-160.212C2138.822,1353.633,2112.705,1351.346,2112.668,1390.783z"
   id="path79" />
			<path
   style="fill:#C43D51;"
   d="M2106.645,1294.85c4.445,1.099,62.786,10.599,72.224,20.14     c9.438,9.541,13.872,22.775,12.754,29.326c-1.117,6.551-6.17,61.816-7.874,100.461c-1.703,38.646-4.538,99.01-0.659,110.969     c3.879,11.959,4.433,13.234,13.877,16.708c9.444,3.474,29.449,3.87,39.456-0.482c10.007-4.352,8.903-12.969,14.454-6.286     c5.551,6.683,0.541,16.443-2.798,20.928c-3.338,4.484-35.574,9.407-48.914,12.176c-13.34,2.769-36.137,17.233-47.802,11.693     c-11.665-5.54-7.192-34.777-5.511-49.154c1.681-14.377-7.738-45.153-11.589-87.448c-3.851-42.295,7.848-73.158,2.294-76.808     s-44.45-7.96-44.45-7.96L2106.645,1294.85z"
   id="path81" />
			<path
   style="fill:#357A47;"
   d="M2034.432,1262.576c0,0,72.227,17.106,80.556,24.097c8.329,6.991,4.889,120.686-9.011,128.247     c-13.9,7.561-86.135-0.444-86.135-0.444s-38.91,10.858-57.739-59.796C1943.275,1284.027,1987.756,1258.617,2034.432,1262.576z"
   id="path83" />
			<path
   style="fill:#8CCC54;"
   d="M2036.619,1248.228c-1.564-4.395-4.131-8.791-5.861-13.1c-2.657-6.62-5.202-13.285-7.746-19.949     c-6.364-16.673-12.642-33.38-19.248-49.959c-5.232-13.133-10.281-26.728-17.307-39.04c-0.768-1.346-1.568-2.683-2.494-3.928     c-12.635-16.992-24.992-0.449-38.353-9.807s-14.366-35.258-33.175-19.714c0,0-33.255,33.814-26.431,79.525     c6.119,40.98,28.683,140.158,52.477,177.338l21.904,36.941c0,0,27.628,1.085,30.353-3.278c0.448-0.716,0.476-2.076,0.22-3.834     c0.033-0.004,0.073-0.009,0.104-0.013c0.022,0.017,0.039,0.03,0.039,0.03s-0.011-0.011-0.029-0.031     c0.401-0.057,0.62-0.105,0.62-0.105s-0.324-0.295-0.892-0.836c-1.736-9.299-9.939-27.444-9.947-27.462     c-1.701-7.303-3.476-16.405-5.212-27.727c-5.47-35.679,27.442-50.961,46.591-60.668c6.214-1.72,20.446,3.873,21.043,2.215     c0.003-0.001-2.214-2.213-2.215-2.215c-1.433-4.283-2.668-8.641-3.974-12.964     C2036.944,1249.174,2036.787,1248.701,2036.619,1248.228z"
   id="path85" />
			<path
   style="fill:#C43D51;"
   d="M1939.418,1047.921c0,0-8.546-15.448-17.814-7.085c-9.268,8.363-6.266,21.358,1.005,25.9     c7.271,4.543,7.181,9.541,8,13.085c0.819,3.544-3.451,11.997-3.451,11.997s11.364,22.263,17.454,27.079     s39.531-6.642,39.531-6.642c-24.533,23.824-7.486-9.212-3.82-16.539c1.213-2.425,6.18-0.183,8.27-1.91     c2.09-1.727,11.355-26.266,10.899-33.627c-0.456-7.361-5.637-13.631-2.003-19.448c3.634-5.817,1.724-14.087,1.724-14.087     l-39.987-0.719c0,0-7.541,10.453-7.358,16.632c0.183,6.18-2.449,21.721-4.087,14.632S1939.874,1055.282,1939.418,1047.921z"
   id="path87" />
			<path
   style="fill:#FFEB8A;"
   d="M1976.404,1035.645c-60.799-4.623-139.142-31.326-147.868-36.777     c-8.725-5.451,70.883-16.372,70.883-16.372c1.703-6.69,3.877-12.792,6.514-18.292c13.511-28.245,39.197-40.848,76.539-36.979     c34.524,3.574,40.118,39.913,41.254,57.819c0.338,5.235,0.287,8.893,0.473,9.697c0.819,3.544,66.257,28.251,70.619,30.976     C2099.18,1028.442,2037.203,1040.268,1976.404,1035.645z"
   id="path89" />
			<path
   style="fill:#FF945F;"
   d="M2023.726,985.043c0.338,5.235,0.287,8.893,0.473,9.697c0,0-69.066,13.464-124.78-12.244     c1.703-6.69,3.877-12.792,6.514-18.292c9.257,7.319,22.352,14.287,40.834,18.555     C1978.892,990.172,2006.59,988.006,2023.726,985.043z"
   id="path91" />
			<path
   style="fill:#C43D51;"
   d="M1965.8,1183.69c0,0,34.815,42.979,48.176,52.337c13.361,9.358,37.717,12.443,41.897,8.989     c4.18-3.454,16.796-83.521,16.7-110.876c-0.096-27.355-8.372-57.798-6.102-69.521c2.27-11.724-7.913-34.26-13.73-37.894     s-15.724-8.812-20.449-7.721c-4.725,1.091-13.631,5.637-13.085,8c0.546,2.363,8.998,6.632,7.181,9.541     c-1.817,2.909-9.088-1.634-10.542-2.543c-1.454-0.908-2.725,4.363,1.91,8.27c4.635,3.907,11.544,12.267,18.815,16.809     c7.271,4.543,5.73,24.809,5.913,30.989c0.183,6.18-8.533,49.258-9.166,68.07c-0.633,18.812,2.003,19.448-0.633,18.812     c-2.635-0.636-26.815-29.894-26.815-29.894L1965.8,1183.69z"
   id="path93" />
			<path
   style="fill:#FFEB8A;"
   d="M1935.413,1105.708c-0.792,0.429-1.439,1.059-1.886,1.841     c-2.694,4.726-11.493,22.925-1.268,44.067c11.91,24.626,26.635,39.891,34.27,40.616c7.634,0.725,45.978-37.997,44.613-43.903     c-1.364-5.907-24.456-46.616-40.269-50.43C1957.283,1094.621,1940.005,1103.223,1935.413,1105.708z"
   id="path95" />
			<path
   style="fill:#6B182C;"
   d="M1983.203,1094.496c0,0-10.808-2.444-21.883-7.981c-11.075-5.538-16.613-11.075-16.613-11.075     l32.864,25.825L1983.203,1094.496z"
   id="path97" />
			<path
   style="fill:#1C2147;"
   d="M1986.792,1046.644c0,3.058-1.24,5.538-2.769,5.538c-1.529,0-2.769-2.479-2.769-5.538     s1.24-5.538,2.769-5.538C1985.552,1041.106,1986.792,1043.585,1986.792,1046.644z"
   id="path99" />
			<path
   style="fill:#6B182C;"
   d="M1989.008,1078.762c-0.061,0-0.121-0.004-0.183-0.015c-7.278-1.212-8.593-6.152-8.645-6.362     c-0.149-0.593,0.212-1.194,0.806-1.342c0.588-0.15,1.188,0.209,1.34,0.796c0.049,0.175,1.103,3.763,6.862,4.723     c0.604,0.101,1.011,0.672,0.911,1.274C1990.01,1078.378,1989.54,1078.762,1989.008,1078.762z"
   id="path101" />
		</g>
		<g
   id="g165">
			<path
   style="fill:#F47A6E;"
   d="M691.254,1167.873c-112.713,19.758-249.271,35.086-256.636,35.308     c-12.725,0.376-20.511-9.237-21.619-19.205c-1.108-9.968-5.538-27.688-12.183-33.226c-6.645-5.538-4.43-19.935-2.215-24.365     c2.215-4.43,1.108-5.538,5.538-5.538s1.107,14.398,6.645,24.366c5.538,9.968,9.968,12.183,27.688,21.043     c17.72,8.86,101.892-28.796,140.656-40.979c38.763-12.183,73.097-33.226,80.849-36.548c7.753-3.323,13.29,0,31.011-8.86     c8.185-4.087,27.467-11.485,45.852-18.263c21.431-7.908,41.643-14.963,41.643-14.963s57.591,39.871,62.021,75.312     C842.365,1136.863,773.1,1153.531,691.254,1167.873z"
   id="path105" />
			<path
   style="fill:#C43D51;"
   d="M691.254,1167.873l45.586-106.267c21.431-7.908,41.643-14.963,41.643-14.963     s57.591,39.871,62.021,75.312C842.365,1136.863,773.1,1153.531,691.254,1167.873z"
   id="path107" />
			<path
   style="fill:#FFEB8A;"
   d="M909.17,656.382c0,0,18.828-28.383,59.806-8.448c40.978,19.936,27.688,53.161,27.688,53.161     s-47.623,6.645-63.129-9.968C918.031,674.515,909.17,656.382,909.17,656.382z"
   id="path109" />
			<path
   style="fill:#FF945F;"
   d="M964.547,684.483c0,0-57.591-25.473-96.355-54.269c-38.763-28.796-70.882-52.054-65.344,0     c5.538,52.054,83.064,97.462,136.225,116.29c53.161,18.828,153.946,17.72,141.763-3.323     C1068.654,722.139,1030.998,717.709,964.547,684.483z"
   id="path111" />
			<path
   style="fill:#1C2147;"
   d="M1004.418,730.999c0,0,22.151,13.29,12.183,37.656c-9.968,24.366,22.15,3.323,29.903,38.763     s-16.613,49.839,2.215,64.236c18.828,14.398-36.548,36.548-52.054,25.473c-15.505-11.075-44.542-78.063-68.233-89.424     s-36.705-63.017-34.075-80.936c2.631-17.919-5.664-24.346,1.806-37.746c7.47-13.399,18.163-13.745,39.951-3.604     C957.902,695.558,995.557,715.494,1004.418,730.999z"
   id="path113" />
			<path
   style="fill:#1C2147;"
   d="M900.31,717.709c0,0-13.29-19.935,0-35.441c13.29-15.505,91.924,27.688,104.107,48.731     c12.183,21.043-13.29,16.613-13.29,16.613L900.31,717.709z"
   id="path115" />
			<path
   style="fill:#FF9F85;"
   d="M912.493,684.483c0,0-15.505,19.935-15.505,29.903s9.968,19.935,5.538,29.903     c-4.43,9.968,3.323,32.118,8.86,42.086s5.538,12.183,9.968,13.29c4.43,1.107,9.968,0,9.968,0s-6.995,13.952-14.573,13.621     c-7.578-0.331-18.653,39.54-3.148,45.078c15.505,5.538,3.323,29.903,27.688,0c24.365-29.903,38.21-56.838,38.21-56.838     s-2.769-6.291-6.091-11.828c-3.323-5.538-1.107-7.753,1.108-11.075c2.215-3.323,3.323-9.968,3.323-9.968s0,3.323,6.645,1.108     c6.645-2.215,14.398-11.075,12.183-19.935c-2.215-8.86-7.753-13.29-11.075-15.505c-3.323-2.215-3.323-12.183-3.323-12.183     s-21.043-6.645-37.656-18.828c-16.613-12.183-23.258-21.043-23.258-21.043s16.613,21.043,12.183,18.828     C929.106,698.881,912.493,684.483,912.493,684.483z"
   id="path117" />
			<g
   id="g125">
				<path
   style="fill:#1C2147;"
   d="M784.176,676.328c0.724,0.756,46.039,20.355,63.96,28.222c4.773,2.095,7.873,6.977,7.873,12.388      v8.332c0,7.79-6.316,13.948-13.751,13.405l-65.222-4.756L784.176,676.328z"
   id="path119" />
				
					<ellipse
   transform="matrix(0.171 -0.9853 0.9853 0.171 -49.1249 1351.6611)"
   style="fill:#584E66;"
   cx="778.706"
   cy="705.025"
   rx="29.206"
   ry="11.795"
   id="ellipse121" />
				
					<ellipse
   transform="matrix(0.1722 -0.9851 0.9851 0.1722 -49.8807 1350.6924)"
   style="opacity:0.74;fill:#D3ECF0;"
   cx="778.706"
   cy="705.025"
   rx="22.027"
   ry="7.996"
   id="ellipse123" />
			</g>
			<path
   style="fill:#F47A6E;"
   d="M907.026,839.882c-3.072,5.071-6.995,9.651-10.83,14.288     c-14.681,17.751-28.929,36.364-44.982,52.721c-0.992,1.01-1.979,2.027-3.032,2.968c-6.247,5.579-15.63,1.197-21.353-3.065     c-14.298-10.649-13.182-31.149-14.705-47.88c-2.028-22.287-3.079-44.674-3.31-67.064c-0.381-37.277,3.787-47.247-0.762-56.898     c-4.549-9.651,0.384-15.688,5.954-24.332c5.571-8.644,6.421-12.12,6.507-19.53c0.086-7.41,5.103-3.201,12.926,3.66     c7.824,6.861,6.59,8.371,7.143,13.173c0.552,4.803-0.299,25.934-3.573,28.723s-7.612,9.925-7.229,11.891     c0.383,1.967,4.463,34.716,6.333,48.254c1.87,13.539,8.289,54.383,12.371,51.822s48.882-57.201,69.546-39.271     c8.447,7.329-4.211,2.002-5.349,14.246C912.106,829.78,909.951,835.053,907.026,839.882z"
   id="path127" />
			<path
   style="fill:#8CCC54;"
   d="M1004.418,940.321c-11.075,43.193-86.387,165.021-108.537,177.204s-57.735,9.912-57.735,9.912     l-0.842-11.706l-10.09-141.077c0,0,15.505-18.828,23.258-28.796c7.753-9.968,9.968-34.333,14.398-44.301     c4.43-9.968,5.538-50.946,12.183-59.806c6.645-8.86,42.086-29.903,42.086-29.903s0,0-4.43,9.968     c-4.43,9.968,3.323,18.828,16.613,19.936c13.29,1.107,25.473-28.796,29.903-35.441c4.43-6.645,22.151-4.43,22.151-4.43     c13.368,0.543,22.095,6.601,27.5,16.07C1027.399,846.901,1012.768,907.771,1004.418,940.321z"
   id="path129" />
			<path
   style="fill:#C43D51;"
   d="M930.213,799.666l22.151-7.753c0,0-24.366,36.548-25.473,31.011     C925.783,817.386,930.213,799.666,930.213,799.666z"
   id="path131" />
			<g
   id="g137">
				<path
   style="fill:#C43D51;"
   d="M919.131,768.652c-0.281,0-0.561-0.107-0.775-0.322c-0.127-0.127-1.299-1.363-3.53-5.825      c-0.59-1.179-0.718-2.261-0.383-3.214c0.572-1.623,2.277-2.406,3.783-3.096c0.853-0.391,1.915-0.879,2.138-1.325      c0.545-1.09-0.912-4.584-2.174-6.687c-0.315-0.525-0.145-1.205,0.38-1.52c0.524-0.314,1.205-0.145,1.52,0.38      c0.607,1.012,3.569,6.192,2.256,8.818c-0.572,1.144-1.906,1.755-3.195,2.347c-1.105,0.507-2.357,1.082-2.617,1.819      c-0.129,0.365-0.036,0.866,0.275,1.488c2.054,4.108,3.115,5.249,3.126,5.261c0.417,0.44,0.408,1.138-0.026,1.561      C919.69,768.547,919.41,768.652,919.131,768.652z"
   id="path133" />
				<path
   style="fill:#C43D51;"
   d="M921.353,781.945c-0.612,0-1.107-0.495-1.107-1.107c0-0.611,0.495-1.107,1.107-1.108      c2.276-0.003,8.524-0.695,10.085-3.818c0.274-0.547,0.938-0.768,1.486-0.495c0.547,0.274,0.769,0.939,0.495,1.486      C930.927,781.888,921.743,781.945,921.353,781.945z"
   id="path135" />
			</g>
			<path
   style="fill:#1C2147;"
   d="M926.892,736.398c-0.345,0-0.685-0.161-0.901-0.462c-0.356-0.497-0.243-1.188,0.253-1.544     c0.2-0.143,4.934-3.497,8.749-2.228c0.58,0.194,0.894,0.821,0.7,1.401c-0.194,0.58-0.82,0.895-1.401,0.7     c-2.275-0.757-5.648,1.133-6.757,1.926C927.341,736.331,927.115,736.398,926.892,736.398z"
   id="path139" />
			<g
   id="g145">
				<path
   style="fill:#1C2147;"
   d="M932.01,718.561c2.462-0.08,5.173-0.218,6.996,1.716c1.47,1.559,3.816-0.794,2.349-2.349      c-2.459-2.608-5.974-2.798-9.346-2.689C929.877,715.307,929.868,718.63,932.01,718.561L932.01,718.561z"
   id="path141" />
				<path
   style="fill:#1C2147;"
   d="M904.453,717.167c0.897-1.077,2.43-3.153,3.979-1.965c0.717,0.55,1.853,0.105,2.273-0.596      c0.509-0.85,0.112-1.729-0.596-2.273c-2.884-2.213-6.133,0.237-8.005,2.484C900.744,716.45,903.082,718.813,904.453,717.167      L904.453,717.167z"
   id="path143" />
			</g>
			<g
   id="g155">
				<path
   style="fill:#1C2147;"
   d="M907.758,721.589l16.046,5.106c1.838,0.585,3.087,2.292,3.087,4.222v7.836      c0,2.447-1.984,4.43-4.43,4.43h-17.279c-2.613,0-4.658-2.249-4.41-4.85l1.233-12.941      C902.272,722.579,905.067,720.732,907.758,721.589z"
   id="path147" />
				<path
   style="fill:#584E66;"
   d="M820.015,675.665c0.898,0.939,57.14,25.263,79.384,35.028c5.924,2.6,9.772,8.659,9.772,15.375      v10.342c0,9.668-7.839,17.311-17.067,16.638l-80.949-5.903L820.015,675.665z"
   id="path149" />
				<path
   style="fill:#776B89;"
   d="M827.568,714.253c-3.528,19.705-12.809,34.349-20.73,32.708      c-7.92-1.641-11.481-18.945-7.952-38.65c3.528-19.705,12.809-34.349,20.729-32.708      C827.535,677.243,831.096,694.548,827.568,714.253z"
   id="path151" />
				<path
   style="opacity:0.74;fill:#D3ECF0;"
   d="M822.949,713.296c-2.661,14.862-9.171,26.008-14.541,24.895      c-5.37-1.112-7.565-14.062-4.904-28.924c2.661-14.862,9.171-26.008,14.541-24.895      C823.414,685.485,825.61,698.434,822.949,713.296z"
   id="path153" />
			</g>
			<path
   style="opacity:0.6;fill:#357A47;"
   d="M1004.418,940.321c-11.075,43.193-86.387,165.021-108.537,177.204     s-57.735,9.912-57.735,9.912l-0.842-11.706c28.652-39.694,67.083-90.917,67.083-90.917s3.123,43.426-7.952,71.114     c-11.075,27.688,89.709-111.86,93.032-142.871c3.323-31.011-19.935,38.763-49.839,44.301     c-29.671,5.493-59.662-138.341-60.117-140.545c0.676,0.653,27.146,27.001,46.826,68.556     c19.935,42.086,47.624-64.237,70.882-96.355c3.378-4.652,8.052-8.351,13.656-11.064     C1027.399,846.901,1012.768,907.771,1004.418,940.321z"
   id="path157" />
			<path
   style="fill:#FF9F85;"
   d="M850.959,1126.374C795.56,1143.619,711.3,985.962,700.568,974.189     c-0.288-0.332-0.532-0.554-0.72-0.642c0,0-21.043,45.409-59.806,81.957c-38.763,36.548-87.495,57.591-91.925,71.989     c-4.43,14.398,3.433,22.627-3.821,27.921c-7.254,5.305-42.695,10.843-55.985,13.058c-13.29,2.215-19.969,16.557-28.807,19.359     c-8.849,2.791-22.139-1.639-21.032-3.854c1.108-2.215,4.43-6.645,9.968-6.645s18.828-13.29,23.258-17.72     c4.43-4.43,23.258-31.011,29.903-34.333c6.645-3.323,14.398-17.72,18.828-22.151c4.43-4.43,104.107-130.688,115.183-147.301     c11.075-16.613,22.151-35.441,36.548-47.623c14.398-12.183,45.409-25.473,58.699-23.258c13.29,2.215,44.301,8.86,105.215,70.882     c55.531,56.539,63.195,46.815,68.312,68.988c0.498,2.148,0.975,4.596,1.462,7.431     C905.848,1032.246,907.93,1108.632,850.959,1126.374z"
   id="path159" />
			<path
   style="fill:#FF9F85;"
   d="M1011.684,852.977c-2.069,8.19-5.639,16.158-8.591,22.414     c-13.252,28.087-25.68,57.121-41.129,83.919c-0.954,1.655-1.901,3.317-2.956,4.905c-6.258,9.42-19.663,7.209-28.337,3.822     c-21.671-8.463-26.672-35.149-33.873-56.047c-9.592-27.837-17.963-56.156-25.283-84.778     c-12.183-47.652-9.968-61.948-18.828-72.67c-8.86-10.722-4.43-20.252,0-33.357c4.43-13.104,4.43-17.87,2.215-27.4     c-2.215-9.53,5.538-5.956,17.72,0c12.183,5.957,11.075,8.339,13.29,14.296c2.215,5.957,7.753,33.357,4.43,38.122     c-3.322,4.765-6.645,15.487-5.538,17.87c1.107,2.383,16.613,42.887,23.258,59.566c6.645,16.678,27.688,66.713,32.118,61.948     c3.422-3.68,3.636-13.385,4.629-18.014c2.305-10.742,4.784-21.523,8.63-31.835c2.975-7.976,7.249-17.13,14.633-21.938     c8.047-5.241,18.715-0.661,26.716,2.318c4.726,1.76,10.104,3.765,13.351,7.858     C1014.515,832.013,1014.288,842.67,1011.684,852.977z"
   id="path161" />
			<path
   style="fill:#F47A6E;"
   d="M850.959,1126.374C795.56,1143.619,711.3,985.962,700.568,974.189     c-0.089-0.653-0.144-1.052-0.155-1.163c1.196,1.484,77.792,97.551,112.956,112.934c35.441,15.505,91.016-61.146,91.016-61.146     c0.498,2.148,0.975,4.596,1.462,7.431C905.848,1032.246,907.93,1108.632,850.959,1126.374z"
   id="path163" />
		</g>
		<g
   id="g233">
			<path
   style="fill:#FF945F;"
   d="M1993.57,1492.976H690.988c0,0-22.151-187.172-155.054-187.172     c-117.83,0-193.983,49.185-209.732,60.338c0,0,0,0,0,0.011c-1.54,1.085-2.503,1.805-2.868,2.093     c-0.089,0.066-0.144,0.1-0.166,0.122c-0.011-0.022,0-0.078,0.011-0.144c0.952-6.136,31.819-192.499,271.454-221.904     c243.656-29.903,261.376-12.183,289.064-26.581c23.258-12.094,112.923-147.644,141.032-190.727     c5.327-8.14,14.387-13.058,24.122-13.058h597.1c21.264,0,41.588,8.727,56.229,24.144c0.199,0.21,0.399,0.421,0.609,0.642     c53.959,56.849,184.746,199.698,238.594,303.041c52.585,100.918,65.543,193.396,68.733,231.185     C2010.936,1484.67,2003.294,1492.976,1993.57,1492.976z"
   id="path167" />
			<path
   style="opacity:0.61;fill:#FFEB8A;"
   d="M1702.79,940.742h-375.528c0,0-242.548,71.014-308.999,94.273     c-66.452,23.258-111.018,174.092-111.018,174.092s-166.97-0.21-353.057,11.097c-171.5,10.433-221.239,127.642-227.984,145.939     c0,0,0,0,0,0.011c-0.565,1.539-0.831,2.381-0.831,2.381c-0.687-0.089-1.362-0.188-2.038-0.288c-0.055,0-0.111-0.011-0.155-0.022     c0.952-6.136,31.819-192.499,271.454-221.904c243.656-29.903,261.376-12.183,289.064-26.581     c23.258-12.094,112.923-147.644,141.032-190.727c5.327-8.14,14.387-13.058,24.122-13.058h597.1     c21.264,0,41.588,8.727,56.229,24.144C1702.38,940.31,1702.579,940.521,1702.79,940.742z"
   id="path169" />
			<g
   id="g179">
				<circle
   style="fill:#584E66;"
   cx="521.891"
   cy="1468.811"
   r="154.146"
   id="circle171" />
				<circle
   style="fill:#2D2735;"
   cx="521.891"
   cy="1468.811"
   r="108.161"
   id="circle173" />
				<circle
   style="opacity:0.74;fill:#D3ECF0;"
   cx="521.891"
   cy="1468.811"
   r="88.39"
   id="circle175" />
				<circle
   style="fill:#FDFDFD;"
   cx="521.891"
   cy="1468.811"
   r="43.947"
   id="circle177" />
			</g>
			<path
   style="fill:#FFEB8A;"
   d="M321.061,1385.546h-16.613c-3.49,0-6.493-2.244-7.169-5.356l-17.817-81.957     c-0.893-4.108,2.564-7.934,7.169-7.934h87.484c5.653,0,9.166,5.586,6.298,10.016l-53.054,81.957     C326.046,1384.301,323.65,1385.546,321.061,1385.546z"
   id="path181" />
			<path
   style="fill:#D34439;"
   d="M344.978,1470.826h-61.097c-3.314,0-6-2.686-6-6v-47.806c0-3.314,2.686-6,6-6h61.097     c3.314,0,6,2.686,6,6v47.806C350.978,1468.139,348.292,1470.826,344.978,1470.826z"
   id="path183" />
			<path
   style="fill:#D34439;"
   d="M323.162,1370.595c-0.052,0-0.104-0.002-0.157-0.005c-1.22-0.086-2.14-1.144-2.055-2.364     c2.151-30.723,20.179-58.624,53.582-82.928c30.01-21.835,65.917-36.013,90.755-44.062     c107.652-34.887,222.049-33.099,332.682-31.375l4.503,0.07c61.406,0.957,124.023,1.215,184.58,1.464     c205.667,0.847,418.335,1.723,625.187,29.974c61.022,8.333,125.996,19.129,187.699,41.496     c36.176,13.113,63.257,27.238,85.22,44.453c0.964,0.755,1.132,2.147,0.377,3.109c-0.755,0.965-2.146,1.134-3.109,0.378     c-21.585-16.918-48.275-30.828-83.998-43.776c-61.314-22.226-126.01-32.971-186.789-41.272     c-206.563-28.213-419.083-29.087-624.606-29.933c-60.568-0.25-123.199-0.507-184.631-1.464l-4.503-0.07     c-110.271-1.721-224.295-3.501-331.247,31.159c-24.532,7.951-59.976,21.938-89.514,43.43     c-32.296,23.498-49.714,50.298-51.77,79.655C325.288,1369.702,324.315,1370.595,323.162,1370.595z"
   id="path185" />
			<path
   style="fill:#D34439;"
   d="M2070.899,1492.976h-69.709v-77.527h69.709c11.046,0,20,8.954,20,20v37.527     C2090.899,1484.022,2081.945,1492.976,2070.899,1492.976z"
   id="path187" />
			<g
   id="g193">
				<path
   style="fill:#D34439;"
   d="M879.272,1493.106c-8.886-113.672,8.938-212.169,25.454-274.78      c17.902-67.863,43.005-114.233,43.208-114.645l-1.833,6.281c-0.202,0.411-20.372,41.74-38.187,109.309      c-16.438,62.342-34.175,160.41-25.329,273.575L879.272,1493.106z"
   id="path189" />
				<polygon
   style="fill:#D34439;"
   points="1332.931,1492.976 1329.608,1492.976 1329.608,1123.929 1333.353,1120.848     "
   id="polygon191" />
			</g>
			<path
   style="fill:#D34439;"
   d="M1269.869,1290.299h-95.645c-3.866,0-7-3.134-7-7v-11.473c0-3.866,3.134-7,7-7h95.645     c3.866,0,7,3.134,7,7v11.473C1276.869,1287.165,1273.735,1290.299,1269.869,1290.299z"
   id="path195" />
			<path
   style="fill:#D34439;"
   d="M1513.54,1347.337h-31.441c-1.104,0-2-0.896-2-2v-3.753c0-1.105,0.896-2,2-2h31.441     c1.105,0,2,0.895,2,2v3.753C1515.54,1346.441,1514.645,1347.337,1513.54,1347.337z"
   id="path197" />
			<rect
   x="690.988"
   y="1444.245"
   style="fill:#D34439;"
   width="970.192"
   height="48.731"
   id="rect199" />
			<g
   id="g209">
				<circle
   style="fill:#584E66;"
   cx="1768.964"
   cy="1468.811"
   r="154.146"
   id="circle201" />
				<circle
   style="fill:#2D2735;"
   cx="1768.964"
   cy="1468.811"
   r="108.161"
   id="circle203" />
				<circle
   style="opacity:0.74;fill:#D3ECF0;"
   cx="1768.964"
   cy="1468.811"
   r="88.39"
   id="circle205" />
				<circle
   style="fill:#FDFDFD;"
   cx="1768.964"
   cy="1468.811"
   r="43.947"
   id="circle207" />
			</g>
			<g
   id="g227">
				<path
   style="fill:#1C2147;"
   d="M1781.158,1131.923h-397.801c-8.661,0-15.672-6.446-15.672-14.398V952.504      c0-7.952,7.011-14.398,15.672-14.398h246.967c4.63,0,9.026,1.883,11.995,5.139l19.094,20.888l131.74,144.133      C1801.714,1117.636,1794.47,1131.923,1781.158,1131.923z"
   id="path211" />
				<path
   style="fill:#1C2147;"
   d="M1333.353,952.504v164.49c0,7.941-6.435,14.387-14.376,14.398l-24.233,0.033l-65.1,0.089      l-236.412,0.332l-6.468,0.011l-29.593,0.033c-3.622,0-6.8-1.273-9.237-3.323c-5.161-4.33-7.055-12.127-3.035-18.64      l101.815-164.988c2.625-4.242,7.254-6.833,12.249-6.833h259.991C1326.907,938.106,1333.353,944.552,1333.353,952.504z"
   id="path213" />
				<path
   style="fill:#584E66;"
   d="M1062.009,1131.923l-28.811-55.634c-1.815-3.505-6.157-4.833-9.622-2.943      c-3.289,1.794-4.597,5.849-2.976,9.227l15.714,32.737l-1.994-3.323l-45.45,12.72l-3.05-4.991      c-0.788-1.29-2.349-1.886-3.796-1.448l-34.091,10.299c2.437,2.049,5.615,3.323,9.237,3.323l36.061-0.044l-4.358-7.133      l4.468,7.21l44.071-14.323l6.875,14.323H1062.009z"
   id="path215" />
				<path
   style="fill:#584E66;"
   d="M1313.794,1061.828l-19.05,69.597l-65.1,0.089l38.918-85.667c1.661-3.655,4.951-5.56,8.196-4.751      l31.199,7.764C1312.586,1050.01,1315.344,1056.135,1313.794,1061.828z"
   id="path217" />
				<path
   style="fill:#584E66;"
   d="M1691.46,1062.326l-19.05,69.597l-65.1,0.089l38.918-85.667c1.661-3.655,4.951-5.56,8.196-4.751      l31.199,7.764C1690.252,1050.509,1693.01,1056.634,1691.46,1062.326z"
   id="path219" />
				<g
   style="opacity:0.27;"
   id="g225">
					<path
   style="fill:#D3ECF0;"
   d="M1333.353,952.504v11.629h-243.711c-5.748,0-11.02,3.179-13.7,8.251       c-13.711,25.949-57.06,107.242-89.178,159.472l-29.593,0.033c-3.622,0-6.8-1.273-9.237-3.323       c-5.161-4.33-7.055-12.127-3.035-18.64l101.815-164.988c2.625-4.242,7.254-6.833,12.249-6.833h259.991       C1326.907,938.106,1333.353,944.552,1333.353,952.504z"
   id="path221" />
					<path
   style="fill:#D3ECF0;"
   d="M1661.412,964.133h-236.689c-8.561,0-15.505,6.944-15.505,15.505v150.623       c0,0.565-0.033,1.119-0.089,1.661h-25.772c-8.661,0-15.672-6.446-15.672-14.398V952.504c0-7.952,7.011-14.398,15.672-14.398       h246.967c4.63,0,9.026,1.883,11.995,5.139L1661.412,964.133z"
   id="path223" />
				</g>
			</g>
			<path
   style="fill:#FFEB8A;"
   d="M320.714,1477.471c-7.98,0-14.461-6.489-14.398-14.469     c0.401-50.982,16.605-219.219,213.005-219.219c197.937,0,209.607,182.218,208.834,235.017     c-0.115,7.867-6.529,14.176-14.397,14.176h-19.217c-17.204,0-32.096-11.985-35.716-28.803     c-10.119-47.026-42.078-135.11-139.504-135.11c-84.271,0-114.662,59.669-125.62,103.337     c-6.658,26.534-30.603,45.072-57.959,45.072H320.714z"
   id="path229" />
			<path
   style="fill:#FFEB8A;"
   d="M1979.784,1422.111c-10.268-69.103-51.526-178.328-209.777-178.328     c-197.937,0-209.607,182.218-208.834,235.017c0.115,7.867,6.529,14.176,14.397,14.176h19.217c17.203,0,32.096-11.983,35.715-28.8     c10.119-47.025,42.076-135.113,139.505-135.113c84.271,0,114.662,59.669,125.62,103.337c0.297,1.183,0.64,2.344,1.004,3.494     l12.967,42.914c2.542,8.413,10.294,14.169,19.083,14.169h82.476c3.058,0,5.538-2.479,5.538-5.538v-27.142     c0-3.309-2.874-5.955-6.158-5.543C2001.904,1455.838,1986.506,1453.011,1979.784,1422.111z"
   id="path231" />
		</g>
		<g
   id="g307">
			<g
   id="g295">
				<g
   id="g261">
					<path
   style="fill:#8CCC54;"
   d="M1578.669,1363.949v238.118c0,11.009-8.927,19.935-19.936,19.935h-373.236       c-11.009,0-19.935-8.927-19.935-19.935v-238.118c0-11.009,8.927-19.935,19.935-19.935h373.236       C1569.743,1344.014,1578.669,1352.941,1578.669,1363.949z"
   id="path235" />
					<g
   id="g245">
						<path
   style="fill:#357A47;"
   d="M1427.895,1412.452l22.813,43.453c1.128,2.148,3.774,2.99,5.936,1.887l54.622-27.868        c2.303-1.175,3.115-4.066,1.759-6.268l-26.079-42.379c-1.219-1.98-3.761-2.681-5.822-1.606l-51.355,26.794        C1427.595,1407.599,1426.756,1410.282,1427.895,1412.452z"
   id="path237" />
						<path
   style="fill:#357A47;"
   d="M1300.797,1390.073l61.552-3.24c2.385-0.125,4.44,1.661,4.646,4.04l4.197,48.268        c0.207,2.377-1.506,4.49-3.873,4.781l-61.542,7.558c-2.501,0.307-4.755-1.531-4.956-4.044l-4.207-52.586        C1296.415,1392.364,1298.306,1390.204,1300.797,1390.073z"
   id="path239" />
						<path
   style="fill:#357A47;"
   d="M1407.987,1586.008h-135.978c-2.209,0-4-1.791-4-4v-45.161c0-2.209,1.791-4,4-4h135.978        c2.209,0,4,1.791,4,4v45.161C1411.987,1584.217,1410.196,1586.008,1407.987,1586.008z"
   id="path241" />
						<path
   style="fill:#357A47;"
   d="M1486.336,1510.921l-26.568,35.424c-1.569,2.092-0.994,5.079,1.238,6.441l47.014,28.667        c1.956,1.193,4.499,0.697,5.864-1.143l25.428-34.273c1.522-2.052,0.998-4.962-1.144-6.354l-45.875-29.819        C1490.34,1508.594,1487.735,1509.056,1486.336,1510.921z"
   id="path243" />
					</g>
					<rect
   x="1165.563"
   y="1473.594"
   style="fill:#FFEB8A;"
   width="413.107"
   height="8.86"
   id="rect247" />
					<path
   style="fill:#357A47;"
   d="M1411.987,1480.24v11.075c0,3.976-3.223,7.199-7.199,7.199h-77.527       c-3.976,0-7.199-3.223-7.199-7.199v-11.075c0-3.976-3.223-7.199-7.199-7.199l0,0c-3.976,0-7.199,3.223-7.199,7.199v24.366       c0,3.976,3.223,7.199,7.199,7.199h106.322c3.976,0,7.199-3.223,7.199-7.199v-24.366c0-3.976-3.223-7.199-7.199-7.199l0,0       C1415.21,1473.041,1411.987,1476.264,1411.987,1480.24z"
   id="path249" />
					<g
   id="g259">
						<path
   style="fill:#FFEB8A;"
   d="M1433.987,1413.844l19.158,36.492c1.128,2.148,3.774,2.99,5.936,1.887l46.094-23.517        c2.303-1.175,3.115-4.066,1.76-6.268l-21.903-35.592c-1.219-1.98-3.761-2.681-5.822-1.606l-43.349,22.617        C1433.687,1408.991,1432.847,1411.674,1433.987,1413.844z"
   id="path251" />
						<path
   style="fill:#FFEB8A;"
   d="M1304.673,1393.06l54.307-2.858c2.384-0.125,4.439,1.661,4.646,4.04l3.689,42.421        c0.207,2.376-1.506,4.49-3.874,4.781l-54.298,6.668c-2.502,0.307-4.755-1.531-4.956-4.044l-3.699-46.231        C1300.291,1395.351,1302.182,1393.191,1304.673,1393.06z"
   id="path253" />
						<path
   style="fill:#FFEB8A;"
   d="M1402.449,1581.578h-124.903c-2.209,0-4-1.791-4-4v-36.301c0-2.209,1.791-4,4-4h124.903        c2.209,0,4,1.791,4,4v36.301C1406.449,1579.787,1404.658,1581.578,1402.449,1581.578z"
   id="path255" />
						<path
   style="fill:#FFEB8A;"
   d="M1488.136,1517.333l-21.169,28.225c-1.569,2.091-0.994,5.079,1.238,6.44l37.791,23.043        c1.956,1.193,4.499,0.697,5.864-1.143l20.254-27.299c1.522-2.052,0.998-4.962-1.144-6.354l-36.876-23.969        C1492.139,1515.006,1489.535,1515.468,1488.136,1517.333z"
   id="path257" />
					</g>
				</g>
				<path
   style="opacity:0.63;fill:#357A47;"
   d="M1331.979,1344.014l-13.833,45.143l-0.986,3.245l-13.567,44.257l-2.88,9.403      l-8.428,27.533l-2.713,8.86l-15.439,50.392l-6.125,19.98l-21.198,69.176h-61.313c-11.009,0-19.935-8.927-19.935-19.935v-238.118      c0-11.009,8.927-19.935,19.935-19.935H1331.979z"
   id="path263" />
				<g
   id="g293">
					<path
   style="fill:#FF945F;"
   d="M1211.525,1309.127c0,0-64.236,3.323-75.312,46.516c-11.075,43.194,4.43,57.591-18.828,80.849       c-23.258,23.258-77.527,48.731-50.946,124.043c26.581,75.312,105.215,66.451,139.548,52.054       c34.333-14.398,66.452-79.742,58.699-127.365c-7.753-47.624,8.86-46.516,29.903-76.419S1279.084,1308.019,1211.525,1309.127z"
   id="path265" />
					<path
   style="fill:#FFEB8A;"
   d="M1292.989,1179.85c0,0-11.69-20.239-11.69-32.422s15.505-17.72,27.688-21.043       c12.183-3.323,34.333-33.226,37.656-27.688c3.323,5.538,2.215,27.688-6.645,50.946c-8.86,23.258-28.796,38.763-32.118,37.656       S1296.927,1184.584,1292.989,1179.85z"
   id="path267" />
					<path
   style="fill:#FFEB8A;"
   d="M1197.127,1309.127c0,0-64.236,3.323-75.312,46.516c-11.075,43.194,4.43,57.591-18.828,80.849       c-23.258,23.258-77.527,48.731-50.946,124.043c26.581,75.312,105.215,66.451,139.548,52.054       c34.333-14.398,66.451-79.742,58.699-127.365c-7.753-47.624,8.86-46.516,29.903-76.419S1264.686,1308.019,1197.127,1309.127z"
   id="path269" />
					<ellipse
   style="fill:#D34439;"
   cx="1171.654"
   cy="1473.041"
   rx="37.656"
   ry="39.871"
   id="ellipse271" />
					<path
   style="fill:#D34439;"
   d="M1113.06,1523.958l52.299,25.216c2.62,1.263,3.332,4.665,1.44,6.874l-0.699,0.815       c-1.298,1.515-3.449,1.975-5.254,1.124l-52.087-24.57c-2.029-0.957-3.022-3.279-2.313-5.408l0.487-1.462       C1107.777,1524.014,1110.654,1522.798,1113.06,1523.958z"
   id="path273" />
					<path
   style="fill:#D34439;"
   d="M1221.147,1326.143l82.951-178.664c0.906-1.951,3.082-2.969,5.16-2.415l8.273,2.206       c2.538,0.677,3.933,3.401,2.999,5.857l-70.768,185.899c-0.913,2.398-3.667,3.522-5.997,2.446l-20.456-9.441       C1221.084,1331.004,1220.115,1328.365,1221.147,1326.143z"
   id="path275" />
					<g
   id="g285">
						
							<rect
   x="1004.949"
   y="1337.436"
   transform="matrix(0.4259 -0.9047 0.9047 0.4259 -511.3007 1870.131)"
   style="fill:#2D2735;"
   width="426.269"
   height="1.107"
   id="rect277" />
						
							<rect
   x="1012.755"
   y="1340.964"
   transform="matrix(0.4041 -0.9147 0.9147 0.4041 -496.235 1921.3348)"
   style="fill:#2D2735;"
   width="427.423"
   height="1.107"
   id="rect279" />
						
							<rect
   x="1018.016"
   y="1343.357"
   transform="matrix(0.3908 -0.9205 0.9205 0.3908 -486.4126 1952.864)"
   style="fill:#2D2735;"
   width="428.284"
   height="1.107"
   id="rect281" />
						
							<rect
   x="1024.389"
   y="1346.463"
   transform="matrix(0.375 -0.927 0.927 0.375 -474.4648 1990.2495)"
   style="fill:#2D2735;"
   width="428.935"
   height="1.108"
   id="rect283" />
					</g>
					
						<ellipse
   transform="matrix(0.2298 -0.9732 0.9732 0.2298 -101.4793 2131.1914)"
   style="fill:#FF945F;"
   cx="1295.697"
   cy="1129.708"
   rx="7.753"
   ry="7.753"
   id="ellipse287" />
					<circle
   style="fill:#FF945F;"
   cx="1312.863"
   cy="1122.509"
   r="6.091"
   id="circle289" />
					<circle
   style="fill:#FF945F;"
   cx="1327.261"
   cy="1111.434"
   r="6.091"
   id="circle291" />
				</g>
			</g>
			<g
   id="g305">
				<path
   style="fill:#357A47;"
   d="M1551.734,1344.014h-229.656c-3.866,0-7-3.134-7-7v-72.387c0-3.866,3.134-7,7-7h229.656      c3.866,0,7,3.134,7,7v72.387C1558.734,1340.88,1555.6,1344.014,1551.734,1344.014z"
   id="path297" />
				<rect
   x="1315.078"
   y="1295.283"
   style="fill:#8CCC54;"
   width="243.656"
   height="5.538"
   id="rect299" />
				<path
   style="fill:#FFEB8A;"
   d="M1459.072,1297.917v4.905c0,1.761-1.427,3.188-3.188,3.188h-34.333      c-1.761,0-3.188-1.427-3.188-3.188v-4.905c0-1.761-1.427-3.188-3.188-3.188l0,0c-1.761,0-3.188,1.427-3.188,3.188v10.79      c0,1.761,1.427,3.188,3.188,3.188h47.086c1.761,0,3.188-1.427,3.188-3.188v-10.79c0-1.761-1.427-3.188-3.188-3.188l0,0      C1460.5,1294.729,1459.072,1296.156,1459.072,1297.917z"
   id="path301" />
				<path
   style="fill:#8CCC54;"
   d="M1388.39,1286.423h-31.441c-1.104,0-2-0.895-2-2v-3.753c0-1.104,0.896-2,2-2h31.441      c1.105,0,2,0.896,2,2v3.753C1390.39,1285.527,1389.495,1286.423,1388.39,1286.423z"
   id="path303" />
			</g>
		</g>
		<g
   id="g325">
			<rect
   x="1166.67"
   y="812.402"
   style="fill:#357A47;"
   width="297.924"
   height="104.107"
   id="rect309" />
			<g
   id="g323">
				<path
   style="fill:#8CCC54;"
   d="M1759.578,768.151c-33.23,51.312-171.251,223.566-470.252,110.671      c-276.705-104.468-257.586-329.01-246.781-389.941c1.439-8.156,9.988-12.912,17.751-9.898l25.076,9.756l649.074,252.744      l18.813,7.336C1761.023,751.831,1764.088,761.176,1759.578,768.151z"
   id="path311" />
				<path
   style="fill:#357A47;"
   d="M1734.446,741.482c-31.291,49.394-158.536,211.924-428.166,108.828      c-245.091-93.714-231.381-298.94-220.907-361.572l10.807,4.211l628.036,244.548L1734.446,741.482z"
   id="path313" />
				<path
   style="fill:#FFEB8A;"
   d="M1724.215,737.497c-38.365,56.414-169.45,196.888-413.171,102.416      c-220.218-85.374-224.133-274.022-214.865-346.964l274.552,106.917l49.021,19.065L1724.215,737.497z"
   id="path315" />
				<path
   style="opacity:0.42;fill:#FF945F;"
   d="M1393.001,810.01c-172.825-67.001-212.427-197.603-216.99-285.972l-79.832-31.089      c-9.268,72.942-5.354,261.59,214.865,346.964c134.569,52.162,234.796,32.695,304.04-4.698      C1555.3,847.641,1481.594,844.351,1393.001,810.01z"
   id="path317" />
				<polygon
   style="fill:#FF945F;"
   points="1644.02,816.751 1395.998,609.429 1395.442,608.967 1098.351,590.533 1098.088,594.899       1391.379,613.097 1390.603,614.961 1156.839,729.374 1158.784,733.3 1388.053,621.088 1299.219,834.524 1303.278,836.208       1394.03,618.162 1394.184,618.086 1394.118,617.952 1394.39,617.299 1481.598,872.056 1485.756,870.653 1399.205,617.816       1641.201,820.103     "
   id="polygon319" />
				<path
   style="fill:#FF945F;"
   d="M1419.752,618.931c-4.17,13.463-18.358,21.254-32.111,17.483      c-14.029-3.846-22.323-18.3-18.488-32.287c0.411-1.498,0.937-2.919,1.579-4.262L1419.752,618.931z"
   id="path321" />
			</g>
		</g>
		<g
   id="g333">
			<path
   style="fill:#FFDCAE;"
   d="M2364.458,1631.417v9.968c0,4.895-3.965,8.86-8.86,8.86H150.516c-4.895,0-8.86-3.965-8.86-8.86     v-9.968c0-4.895,3.965-8.86,8.86-8.86h2205.082C2360.493,1622.557,2364.458,1626.521,2364.458,1631.417z"
   id="path327" />
			<path
   style="fill:#FFDCAE;"
   d="M1312.062,1716.696h-968.59c-4.418,0-8-3.582-8-8v-11.688c0-4.418,3.582-8,8-8h968.59     c4.418,0,8,3.582,8,8v11.688C1320.062,1713.114,1316.48,1716.696,1312.062,1716.696z"
   id="path329" />
			<path
   style="fill:#FFDCAE;"
   d="M1918.986,1716.696h-516.719c-4.418,0-8-3.582-8-8v-11.688c0-4.418,3.582-8,8-8h516.719     c4.418,0,8,3.582,8,8v11.688C1926.986,1713.114,1923.404,1716.696,1918.986,1716.696z"
   id="path331" />
		</g>
		<g
   id="g343">
			<path
   style="fill:#EDF9F7;"
   d="M1489.913,485.682c0.131-0.452,0.269-0.901,0.375-1.362c0.403,0.466,0.822,0.919,1.25,1.362     h102.695c-1.414-6.371-7.089-11.138-13.885-11.138c-2.336,0-4.534,0.573-6.479,1.571c-5.957-7.975-15.471-13.139-26.191-13.139     c0-18.043-14.627-32.67-32.67-32.67c-17.019,0-30.993,13.016-32.524,29.635c-4.422-3.921-10.238-6.305-16.612-6.305     c-13.167,0-23.954,10.158-24.971,23.063c-1.864-0.896-3.944-1.413-6.15-1.413c-6.529,0-12.017,4.402-13.694,10.396H1489.913z"
   id="path335" />
			<path
   style="fill:#EDF9F7;"
   d="M788.025,486.66c0.327-1.126,0.67-2.246,0.934-3.397c1.005,1.163,2.049,2.293,3.117,3.397h256.122     c-3.527-15.889-17.679-27.779-34.629-27.779c-5.826,0-11.308,1.43-16.158,3.917c-14.857-19.891-38.584-32.769-65.32-32.769     c0-44.999-36.479-81.478-81.478-81.478c-42.446,0-77.296,32.461-81.115,73.91c-11.029-9.778-25.532-15.725-41.431-15.725     c-32.838,0-59.741,25.333-62.278,57.52c-4.648-2.234-9.837-3.523-15.339-3.523c-16.283,0-29.971,10.978-34.153,25.927H788.025z"
   id="path337" />
			<path
   style="fill:#EDF9F7;"
   d="M1104.585,413.951c-0.191-0.658-0.391-1.311-0.546-1.984c-0.587,0.679-1.196,1.339-1.82,1.984     H952.658c2.059-9.278,10.324-16.221,20.221-16.221c3.402,0,6.603,0.835,9.435,2.288c8.675-11.615,22.531-19.135,38.143-19.135     c0-26.277,21.302-47.578,47.579-47.578c24.786,0,45.136,18.956,47.367,43.159c6.44-5.71,14.909-9.183,24.193-9.183     c19.176,0,34.885,14.793,36.367,33.588c2.714-1.305,5.744-2.057,8.957-2.057c9.508,0,17.502,6.411,19.943,15.14H1104.585z"
   id="path339" />
			<path
   style="fill:#EDF9F7;"
   d="M1770.651,439.166c0.191-0.658,0.391-1.312,0.546-1.984c0.587,0.679,1.196,1.339,1.821,1.984     h149.561c-2.059-9.278-10.324-16.221-20.221-16.221c-3.402,0-6.603,0.835-9.435,2.288c-8.675-11.615-22.531-19.135-38.143-19.135     c0-26.277-21.302-47.578-47.578-47.578c-24.786,0-45.136,18.956-47.367,43.159c-6.441-5.71-14.909-9.183-24.193-9.183     c-19.176,0-34.885,14.793-36.367,33.588c-2.714-1.305-5.744-2.057-8.957-2.057c-9.508,0-17.502,6.411-19.943,15.14H1770.651z"
   id="path341" />
		</g>
		<g
   id="g349">
			<path
   style="fill:#357A47;"
   d="M258.499,1629.272c-1.221,0-2.256-0.89-2.447-2.096c-1.06-6.711-3.564-28.436,4.22-49.041     c4.945-13.091,8.045-20.031,9.868-23.664c0.886-1.765,3.388-1.819,4.362-0.101l4.757,8.393c1.104,1.948,4.015,1.55,4.554-0.623     c1.673-6.74,6.177-17.587,18.274-28.845c9.055-8.427,14.43-13.098,17.598-15.687c1.68-1.373,4.185-0.065,4.03,2.1l-1.028,14.353     c-0.175,2.446,2.922,3.63,4.425,1.692c4.266-5.501,11.929-13.005,25.594-21.355c22.942-14.017,49.93-12.528,59.012-11.519     c1.618,0.18,2.626,1.84,2.036,3.357c-3.926,10.09-17.353,43.515-28.035,57.011c-8.274,10.453-16.548,17.364-21.285,20.897     c-1.61,1.201-1.19,3.714,0.721,4.335l6.512,2.115c1.96,0.636,2.336,3.252,0.626,4.403c-5.824,3.923-16.805,10.596-25.64,11.749     c-4.371,0.57-8.02,1.031-10.925,1.389c-2.445,0.302-2.991,3.601-0.777,4.682l3.059,1.493c1.912,0.934,1.84,3.684-0.123,4.506     c-8.618,3.608-27.003,10.456-42.402,10.456H258.499z"
   id="path345" />
			<path
   style="fill:#215E55;"
   d="M276.777,1630.51c0.414,0,0.819-0.208,1.053-0.586c0.142-0.23,14.513-23.258,37.262-47.343     c22.773-24.111,55.645-49.382,55.974-49.635c0.542-0.416,0.645-1.193,0.229-1.735c-0.416-0.543-1.193-0.646-1.736-0.23     c-0.331,0.254-33.356,25.642-56.268,49.899c-22.93,24.276-37.423,47.508-37.566,47.74c-0.36,0.581-0.181,1.344,0.4,1.704     C276.329,1630.45,276.555,1630.51,276.777,1630.51z"
   id="path347" />
		</g>
		<g
   id="g355">
			<path
   style="fill:#8CCC54;"
   d="M298.469,1629.08c1.41,0,2.606-1.027,2.826-2.421c1.224-7.751,4.116-32.844-4.874-56.642     c-5.712-15.12-9.292-23.135-11.398-27.332c-1.023-2.039-3.913-2.101-5.038-0.116l-5.495,9.693     c-1.275,2.25-4.637,1.791-5.26-0.719c-1.933-7.784-7.135-20.313-21.106-33.316c-10.459-9.733-16.667-15.129-20.326-18.118     c-1.941-1.586-4.833-0.075-4.654,2.425l1.188,16.578c0.202,2.825-3.375,4.193-5.111,1.955     c-4.927-6.354-13.778-15.021-29.561-24.665c-26.498-16.19-57.669-14.47-68.159-13.304c-1.869,0.208-3.033,2.125-2.351,3.877     c4.534,11.654,20.042,50.26,32.381,65.848c9.556,12.073,19.113,20.056,24.584,24.136c1.86,1.387,1.374,4.29-0.833,5.006     l-7.522,2.442c-2.264,0.735-2.698,3.756-0.724,5.086c6.726,4.531,19.409,12.239,29.614,13.57     c5.049,0.659,9.264,1.19,12.618,1.605c2.824,0.349,3.455,4.159,0.898,5.407l-3.533,1.725c-2.209,1.078-2.125,4.256,0.142,5.205     c9.954,4.167,31.188,12.076,48.975,12.076H298.469z"
   id="path351" />
			<path
   style="fill:#357A47;"
   d="M277.357,1630.51c-0.478,0-0.946-0.24-1.217-0.677c-0.164-0.265-16.763-26.864-43.037-54.682     c-26.303-27.849-64.27-57.037-64.65-57.328c-0.626-0.48-0.745-1.378-0.265-2.004c0.48-0.627,1.378-0.746,2.005-0.265     c0.382,0.293,38.526,29.616,64.989,57.634c26.484,28.039,43.223,54.871,43.389,55.14c0.416,0.671,0.21,1.552-0.462,1.968     C277.875,1630.441,277.614,1630.51,277.357,1630.51z"
   id="path353" />
		</g>
		<g
   id="g405">
			<g
   id="g361">
				<path
   style="fill:#8CCC54;"
   d="M2213.434,1604.758c0,0-3.413-74.501-30.205-121.159c-26.792-46.658-92.884-81.205-92.884-81.205      l10.394,66.714h14.514l-11.237,14.491c0,0,17.166,39.392,39.025,70.702C2164.902,1585.61,2213.434,1604.758,2213.434,1604.758z"
   id="path357" />
				<path
   style="fill:#357A47;"
   d="M2213.434,1605.815c0.115,0,0.231-0.019,0.346-0.058c0.552-0.191,0.844-0.794,0.653-1.346      c-0.161-0.466-16.383-47.035-37.69-84.08c-21.35-37.119-48.962-60.414-49.238-60.645c-0.448-0.374-1.115-0.314-1.489,0.133      c-0.375,0.448-0.315,1.115,0.133,1.49c0.274,0.228,27.607,23.299,48.761,60.077c21.208,36.872,37.364,83.253,37.525,83.716      C2212.586,1605.542,2212.996,1605.815,2213.434,1605.815z"
   id="path359" />
			</g>
			<g
   id="g397">
				<g
   id="g393">
					<path
   style="fill:#8CCC54;"
   d="M2379.049,1467.07c0,0,48.648-16.128,40.98-34.371       C2412.362,1414.456,2379.049,1467.07,2379.049,1467.07z"
   id="path363" />
					<path
   style="fill:#8CCC54;"
   d="M2375.642,1469.161c0,0,62.947,0.818,45.207,21.969       C2403.108,1512.28,2375.642,1469.161,2375.642,1469.161z"
   id="path365" />
					<path
   style="fill:#357A47;"
   d="M2369.279,1467.945c0,0,18.759-16.738,15.85-35.775       C2382.221,1413.134,2369.279,1467.945,2369.279,1467.945z"
   id="path367" />
					<path
   style="fill:#59AA50;"
   d="M2366.887,1469.161c0,0,29.347,21.704,25.117,29.9       C2387.773,1507.257,2366.887,1469.161,2366.887,1469.161z"
   id="path369" />
					<path
   style="fill:#8CCC54;"
   d="M2362.579,1469.161c0,0,28.428-48.095,13.063-56.555       C2360.277,1404.145,2362.579,1469.161,2362.579,1469.161z"
   id="path371" />
					<path
   style="fill:#8CCC54;"
   d="M2355.827,1470.664c0,0,24.543,15.373,18.727,29.552S2355.827,1470.664,2355.827,1470.664z"
   id="path373" />
					<path
   style="fill:#357A47;"
   d="M2290.264,1504.105c0,0,24.543,15.373,18.727,29.552       C2303.174,1547.837,2290.264,1504.105,2290.264,1504.105z"
   id="path375" />
					<path
   style="fill:#59AA50;"
   d="M2350.759,1472.628c0,0,7.667-27.239,0-42.573c-7.667-15.335-10.84,3.437-8.989,15.599       C2343.62,1457.816,2350.759,1472.628,2350.759,1472.628z"
   id="path377" />
					<path
   style="fill:#59AA50;"
   d="M2283.493,1514.122c0,0,7.667-27.238,0-42.573s-10.84,3.437-8.989,15.599       C2276.355,1499.31,2283.493,1514.122,2283.493,1514.122z"
   id="path379" />
					<path
   style="fill:#8CCC54;"
   d="M2298.723,1498.396c0,0,7.667-27.238,0-42.573s-10.84,3.437-8.989,15.599       S2298.723,1498.396,2298.723,1498.396z"
   id="path381" />
					<path
   style="fill:#357A47;"
   d="M2336.917,1478.717c0,0,15.557-5.302,25.54,13.734       C2372.439,1511.487,2336.917,1478.717,2336.917,1478.717z"
   id="path383" />
					<path
   style="fill:#59AA50;"
   d="M2316.993,1487.468c0,0,15.557-5.302,25.54,13.734       C2352.515,1520.238,2316.993,1487.468,2316.993,1487.468z"
   id="path385" />
					<path
   style="fill:#8CCC54;"
   d="M2305.755,1493.545c0,0,15.557-5.302,25.54,13.734       C2341.277,1526.316,2305.755,1493.545,2305.755,1493.545z"
   id="path387" />
					<path
   style="fill:#59AA50;"
   d="M2328.681,1479.798c0,0,8.858-12.464,4.892-30.178       C2329.608,1431.906,2323.524,1460.535,2328.681,1479.798z"
   id="path389" />
					<path
   style="fill:#357A47;"
   d="M2315.027,1487.027c0,0,8.858-12.464,4.893-30.178S2309.87,1467.764,2315.027,1487.027z"
   id="path391" />
				</g>
				<path
   style="fill:#357A47;"
   d="M2236.823,1616.385c0.026,0,0.052-0.001,0.077-0.003c0.583-0.042,1.02-0.548,0.979-1.131      c-0.039-0.54-3.321-54.605,47.168-103.711c50.504-49.121,116.248-43.478,116.903-43.418c0.583,0.074,1.097-0.371,1.153-0.952      c0.056-0.582-0.37-1.097-0.952-1.153c-0.667-0.064-67.353-5.816-118.58,44.006c-51.229,49.826-47.843,104.83-47.803,105.381      C2235.81,1615.96,2236.274,1616.385,2236.823,1616.385z"
   id="path395" />
			</g>
			<path
   style="fill:#59AA50;"
   d="M2234.003,1629.46c-1.867,0,17.543-38.303-15.781-96.116     c-33.324-57.813-49.746-66.274-49.746-66.274s25.588,37.308,31.933,69.417c6.345,32.109,6.345,92.973,6.345,92.973H2234.003z"
   id="path399" />
			<path
   style="fill:#357A47;"
   d="M2228.011,1618.498c0,0-12.986-36.787-29.594-48.039c-16.608-11.252-55.821-13.849-55.821-13.849     s42.188,13.849,52.464,38.518c10.276,24.669,10.276,34.332,10.276,34.332h21.721L2228.011,1618.498z"
   id="path401" />
			<path
   style="fill:#8CCC54;"
   d="M2218.223,1629.46c0,0,5.74-50.266,35.208-71.429c29.468-21.162,71.771-18.342,71.771-18.342     s-51.468,13.396-62.749,35.957c-11.281,22.561-3.597,53.814-3.597,53.814H2218.223z"
   id="path403" />
		</g>
		<g
   id="g411">
			<path
   style="fill:#357A47;"
   d="M971.657,1622.573c-6.883-6.002-15.784-9.782-25.544-10.157c2.018-3.49,3.189-7.538,3.189-11.854     c0-13.046-10.576-23.622-23.622-23.622c-8.773,0-16.417,4.778-20.487,11.876c-3.307-1.127-6.807-1.847-10.426-2.094     c-6.12-15.172-20.981-25.888-38.343-25.888c-17.201,0-31.944,10.512-38.171,25.448c-5.884-3.21-12.627-5.047-19.81-5.047     c-3.436,0-6.775,0.429-9.975,1.213c-4.316-4.703-10.512-7.656-17.405-7.656c-12.939,0-23.451,10.415-23.612,23.311     c-5.38-2.556-11.382-3.984-17.728-3.984c-18.329,0-33.876,11.94-39.288,28.454H971.657z"
   id="path407" />
			<path
   style="fill:#8CCC54;"
   d="M815.994,1623.11c5.386-4.698,12.353-7.655,19.991-7.949c-1.58-2.731-2.496-5.899-2.496-9.277     c0-10.21,8.277-18.487,18.487-18.487c6.865,0,12.849,3.739,16.033,9.294c2.588-0.882,5.328-1.445,8.159-1.639     c4.79-11.874,16.42-20.26,30.008-20.26c13.462,0,24.999,8.227,29.873,19.916c4.605-2.513,9.882-3.949,15.504-3.949     c2.689,0,5.302,0.336,7.806,0.95c3.378-3.681,8.227-5.992,13.622-5.992c10.126,0,18.352,8.151,18.479,18.243     c4.21-2,8.907-3.118,13.874-3.118c14.344,0,26.512,9.344,30.747,22.269H815.994z"
   id="path409" />
		</g>
		<g
   id="g433">
			<g
   id="g429">
				<path
   style="fill:#FF6169;"
   d="M1544.637,1620.979c-35.102-6.753-61.621-37.625-61.621-74.695      c0-23.329,10.498-44.205,27.039-58.163c4.968-4.196,10.49-7.768,16.428-10.585c-1.422,2.93-3.268,6.996-5.202,11.946      c-7.508,19.168-16.29,51.496-6.138,81.292C1521.845,1590.454,1533.488,1607.681,1544.637,1620.979z"
   id="path413" />
				<path
   style="fill:#FFFFFF;"
   d="M1635.153,1546.284c0,24.396-11.478,46.103-29.337,60.026      c4.465-23.693,5.774-53.395-6.025-79.316c-10.629-23.346-28.158-38.466-44.5-48.089c-4.543-2.67-8.99-4.916-13.177-6.797      c5.462-1.24,11.14-1.899,16.975-1.899c1.578,0,3.147,0.052,4.699,0.147C1603.614,1472.777,1635.153,1505.851,1635.153,1546.284z      "
   id="path415" />
				<path
   style="fill:#FFFFFF;"
   d="M1527.255,1477.175c-0.259,0.12-0.517,0.24-0.775,0.362      c-6.919,14.279-24.105,55.752-11.335,93.238c6.703,19.675,18.34,36.904,29.49,50.203c4.679,0.9,9.508,1.377,14.449,1.377      c4.143,0,8.207-0.336,12.17-0.973c-0.034-20.213-1.948-46.85-9.105-75.098C1552.635,1508.73,1537.3,1487.642,1527.255,1477.175z      "
   id="path417" />
				<path
   style="fill:#FF6169;"
   d="M1605.816,1606.311c-9.865,7.69-21.673,12.995-34.564,15.067      c-0.035-20.208-1.942-46.849-9.103-75.094c-7.1-28.045-17.452-46.91-26.433-59.021c-3.034-4.109-5.921-7.438-8.461-10.091      c4.716-2.176,9.684-3.884,14.859-5.063c4.187,1.881,8.635,4.127,13.177,6.797c16.342,9.623,33.871,24.742,44.5,48.089      C1611.59,1552.916,1610.281,1582.617,1605.816,1606.311z"
   id="path419" />
				<path
   style="fill:#FF6169;"
   d="M1563.787,1470.358c-1.274,2.8-4.274,5.782-8.496,8.548c-4.543,2.982-10.498,5.713-17.243,7.707      c-0.78,0.234-1.56,0.442-2.332,0.65c-5.141,1.344-10.065,2.072-14.435,2.219c-4.473,0.147-8.34-0.321-11.227-1.361      c4.968-4.196,10.49-7.768,16.428-10.585c0.13-0.269,0.251-0.529,0.373-0.771c0.13,0.13,0.269,0.269,0.399,0.407      c4.716-2.176,9.684-3.884,14.859-5.063c5.462-1.24,11.14-1.899,16.975-1.899      C1560.666,1470.211,1562.235,1470.263,1563.787,1470.358z"
   id="path421" />
				<g
   id="g427">
					<path
   style="fill:#FFFFFF;"
   d="M1527.255,1477.172c-0.26,0.121-0.52,0.243-0.772,0.364c0.13-0.269,0.251-0.529,0.373-0.771       C1526.986,1476.895,1527.125,1477.034,1527.255,1477.172z"
   id="path423" />
					<path
   d="M1526.856,1476.765c-0.121,0.243-0.243,0.503-0.373,0.771c0.251-0.121,0.512-0.243,0.772-0.364       C1527.125,1477.034,1526.986,1476.895,1526.856,1476.765L1526.856,1476.765z"
   id="path425" />
				</g>
			</g>
			<path
   style="opacity:0.39;fill:#892E57;"
   d="M1598.78,1587.387v0.009c-3.962,0.633-8.028,0.971-12.171,0.971     c-4.942,0-9.771-0.477-14.452-1.378c-35.102-6.753-61.622-37.625-61.622-74.695c0-10.224,2.017-19.977,5.675-28.884     c-2.15,1.466-4.224,3.034-6.206,4.708c-16.541,13.958-27.04,34.833-27.04,58.162c0,37.07,26.519,67.942,61.621,74.695     c4.682,0.901,9.51,1.378,14.452,1.378c4.144,0,8.21-0.338,12.172-0.971v-0.009c12.891-2.072,24.69-7.378,34.556-15.067     c10.369-8.083,18.58-18.795,23.649-31.129C1620.401,1581.325,1610.005,1585.583,1598.78,1587.387z"
   id="path431" />
		</g>
	</g>
</g>
</svg>
