<?xml version="1.0" encoding="UTF-8" standalone="no"?>
<svg
   height="24"
   viewBox="0 -960 960 960"
   width="24"
   version="1.1"
   id="svg2666"
   sodipodi:docname="logo.svg"
   inkscape:version="1.2.2 (732a01da63, 2022-12-09)"
   xmlns:inkscape="http://www.inkscape.org/namespaces/inkscape"
   xmlns:sodipodi="http://sodipodi.sourceforge.net/DTD/sodipodi-0.dtd"
   xmlns="http://www.w3.org/2000/svg"
   xmlns:svg="http://www.w3.org/2000/svg">
  <defs
     id="defs2670" />
  <sodipodi:namedview
     id="namedview2668"
     pagecolor="#505050"
     bordercolor="#eeeeee"
     borderopacity="1"
     inkscape:showpageshadow="0"
     inkscape:pageopacity="0"
     inkscape:pagecheckerboard="0"
     inkscape:deskcolor="#505050"
     showgrid="false"
     inkscape:zoom="34.541667"
     inkscape:cx="10.364294"
     inkscape:cy="12.014475"
     inkscape:window-width="1920"
     inkscape:window-height="1009"
     inkscape:window-x="-8"
     inkscape:window-y="-8"
     inkscape:window-maximized="1"
     inkscape:current-layer="svg2666" />
  <path
     d="m354-334 356-94q15-4 22.5-18.5T736-476q-4-15-17.5-22.5T690-502l-98 26-160-150-56 14 96 168-96 24-50-38-38 10 66 114Zm446 174H160q-33 0-56.5-23.5T80-240v-160q33 0 56.5-23.5T160-480q0-33-23.5-56.5T80-560v-160q0-33 23.5-56.5T160-800h640q33 0 56.5 23.5T880-720v480q0 33-23.5 56.5T800-160Zm0-80v-480H160v102q37 22 58.5 58.5T240-480q0 43-21.5 79.5T160-342v102h640ZM480-480Z"
     id="path2664"
     style="fill:#58c4e6;fill-opacity:1" />
</svg>
